<svg width="120" height="40" fill="none" xmlns="http://www.w3.org/2000/svg"><path d="M5.863.179c1.086 0 2.029.18 2.828.537.812.358 1.432.871 1.862 1.54.43.668.645 1.462.645 2.38 0 .908-.215 1.702-.645 2.382-.43.668-1.05 1.181-1.862 1.54-.8.358-1.742.537-2.828.537h-2.83v3.616H.708V.179h5.156Zm-.108 6.946c1.015 0 1.784-.215 2.31-.644.525-.43.787-1.045.787-1.844 0-.8-.262-1.414-.787-1.844-.526-.43-1.295-.645-2.31-.645H3.034v4.977h2.721Zm15.966 5.586-2.56-3.67a4.777 4.777 0 0 1-.483.018h-2.829v3.652h-2.327V.179h5.156c1.086 0 2.029.18 2.828.537.812.358 1.433.871 1.862 1.54.43.668.645 1.462.645 2.38 0 .944-.233 1.755-.698 2.436-.454.68-1.11 1.187-1.97 1.521l2.883 4.118H21.72Zm-.053-8.074c0-.8-.263-1.414-.788-1.844-.525-.43-1.295-.645-2.31-.645h-2.72v4.995h2.72c1.015 0 1.785-.215 2.31-.644.525-.442.788-1.063.788-1.862ZM32.47 12.89c-1.277 0-2.429-.274-3.455-.824a6.25 6.25 0 0 1-2.417-2.309c-.585-.99-.878-2.095-.878-3.312 0-1.217.293-2.315.878-3.294A6.082 6.082 0 0 1 29.016.84C30.042.281 31.194 0 32.47 0c1.277 0 2.429.28 3.455.841a6.12 6.12 0 0 1 2.417 2.292c.585.979.877 2.083.877 3.312 0 1.23-.292 2.333-.877 3.312a6.25 6.25 0 0 1-2.417 2.31c-1.026.549-2.178.823-3.455.823Zm0-2.04c.835 0 1.587-.186 2.256-.556a4.16 4.16 0 0 0 1.575-1.575c.382-.68.573-1.439.573-2.274s-.191-1.587-.573-2.256a4 4 0 0 0-1.575-1.575c-.669-.382-1.42-.573-2.256-.573-.836 0-1.587.19-2.256.573a4 4 0 0 0-1.575 1.575c-.382.669-.573 1.42-.573 2.256 0 .835.19 1.593.573 2.274a4.16 4.16 0 0 0 1.575 1.575c.669.37 1.42.555 2.256.555Zm11.955 1.986a8.558 8.558 0 0 1-2.273-.304c-.74-.203-1.331-.46-1.773-.77l.86-1.7c.43.286.942.519 1.54.698a6.74 6.74 0 0 0 1.79.25c1.336 0 2.005-.352 2.005-1.056 0-.334-.173-.567-.52-.698-.334-.132-.877-.257-1.629-.376-.787-.12-1.432-.257-1.933-.412a3.061 3.061 0 0 1-1.29-.806c-.357-.393-.536-.937-.536-1.629 0-.907.376-1.629 1.128-2.166.764-.549 1.79-.824 3.079-.824.656 0 1.313.078 1.97.233.656.143 1.193.34 1.61.591l-.859 1.7c-.812-.477-1.724-.715-2.739-.715-.657 0-1.158.101-1.504.304-.334.191-.501.448-.501.77 0 .358.179.615.537.77.37.143.937.28 1.7.411.765.12 1.391.257 1.88.412.49.155.908.418 1.254.788.358.37.537.895.537 1.575 0 .896-.388 1.612-1.164 2.149-.776.537-1.832.805-3.169.805Zm12.007-.644a2.627 2.627 0 0 1-.967.483 4.2 4.2 0 0 1-1.182.161c-1.05 0-1.861-.274-2.434-.823-.573-.55-.86-1.349-.86-2.4v-4.6h-1.575v-1.79h1.575V1.038h2.238v2.185h2.56v1.79h-2.56V9.56c0 .466.114.824.34 1.074.227.239.555.358.985.358.501 0 .92-.131 1.253-.394l.627 1.594Zm5.823.644c-.967 0-1.838-.209-2.614-.626a4.648 4.648 0 0 1-1.826-1.737c-.43-.752-.645-1.6-.645-2.542 0-.943.215-1.784.645-2.524a4.648 4.648 0 0 1 1.826-1.737c.776-.418 1.647-.627 2.614-.627.978 0 1.856.21 2.631.627a4.524 4.524 0 0 1 1.809 1.737c.441.74.662 1.581.662 2.524 0 .943-.221 1.79-.662 2.542a4.524 4.524 0 0 1-1.809 1.737c-.775.417-1.653.626-2.631.626Zm0-1.915c.823 0 1.504-.275 2.04-.824.538-.549.806-1.27.806-2.166 0-.895-.268-1.617-.805-2.166-.537-.55-1.218-.824-2.041-.824-.824 0-1.504.275-2.041.824-.526.549-.788 1.27-.788 2.166 0 .895.263 1.617.788 2.166.537.55 1.217.824 2.04.824ZM85.394 40c-1.265 0-2.41-.275-3.437-.824a6.283 6.283 0 0 1-2.399-2.309c-.573-.979-.86-2.083-.86-3.312 0-1.23.293-2.333.878-3.312a6.153 6.153 0 0 1 2.399-2.292c1.026-.56 2.172-.841 3.437-.841 1.027 0 1.963.179 2.811.537a5.73 5.73 0 0 1 2.148 1.558l-1.503 1.414c-.907-.979-2.023-1.468-3.348-1.468-.86 0-1.63.19-2.31.573-.68.37-1.211.889-1.593 1.557-.382.669-.573 1.427-.573 2.274s.19 1.605.573 2.274a4.126 4.126 0 0 0 1.593 1.575c.68.37 1.45.555 2.31.555 1.325 0 2.44-.495 3.348-1.486l1.503 1.432a5.701 5.701 0 0 1-2.166 1.558c-.847.358-1.784.537-2.81.537Zm15.407-.179-2.56-3.67a4.782 4.782 0 0 1-.483.018h-2.83v3.652h-2.326V27.289h5.156c1.086 0 2.028.179 2.828.537.811.358 1.432.871 1.862 1.54.43.668.645 1.462.645 2.38 0 .944-.233 1.755-.699 2.436-.453.68-1.11 1.187-1.969 1.521l2.882 4.118h-2.506Zm-.054-8.074c0-.8-.263-1.415-.787-1.844-.526-.43-1.295-.645-2.31-.645h-2.72v4.995h2.721c1.014 0 1.784-.215 2.31-.644.524-.442.787-1.063.787-1.862Zm16.461 8.074-.018-8.307-4.118 6.875h-1.038l-4.118-6.768v8.2h-2.22V27.289h1.916l4.977 8.307 4.887-8.307h1.916l.018 12.532h-2.202Z" fill="#222"/><path d="M77.772 9.642h40.71M1 33h66.65" stroke="#FFE200" stroke-width="1.5" stroke-linecap="round"/></svg>