<svg width="369" height="55" fill="none" xmlns="http://www.w3.org/2000/svg"><rect x=".5" y=".5" width="368" height="53" rx="2.5" stroke="#FFE200"/><path d="M12.861 13.7h21.255v4.173H17.853v6.708h8.073c3.276 0 5.759.689 7.449 2.067 1.716 1.352 2.574 3.315 2.574 5.889 0 2.704-.936 4.797-2.808 6.279C31.269 40.272 28.604 41 25.146 41H12.861V13.7zm12.012 23.4c1.95 0 3.432-.377 4.446-1.131 1.014-.754 1.521-1.846 1.521-3.276 0-2.808-1.989-4.212-5.967-4.212h-7.02V37.1h7.02zm16.082-16.926h4.875v13.728l11.505-13.728h4.446V41h-4.875V27.272L45.44 41h-4.485V20.174zm43.88 4.134h-7.292V41h-4.876V24.308h-7.332v-4.134h19.5v4.134zm15.08-4.368c2.029 0 3.836.442 5.422 1.326a9.527 9.527 0 013.783 3.744c.91 1.612 1.365 3.471 1.365 5.577s-.455 3.978-1.365 5.616a9.527 9.527 0 01-3.783 3.744c-1.586.884-3.393 1.326-5.421 1.326-2.808 0-5.031-.936-6.67-2.808v10.101h-4.874V20.174h4.64v2.73a7.572 7.572 0 012.965-2.223c1.196-.494 2.509-.741 3.939-.741zM99.37 37.1c1.794 0 3.263-.598 4.407-1.794 1.17-1.196 1.755-2.769 1.755-4.719 0-1.95-.585-3.523-1.755-4.719-1.144-1.196-2.613-1.794-4.407-1.794-1.17 0-2.223.273-3.16.819-.935.52-1.676 1.274-2.222 2.262s-.82 2.132-.82 3.432c0 1.3.274 2.444.82 3.432.546.988 1.287 1.755 2.223 2.301.936.52 1.989.78 3.159.78zm15.967-16.926h4.875v13.728l11.505-13.728h4.446V41h-4.875V27.272L119.822 41h-4.485V20.174zm36.041 12.48h-3.783V41h-4.875V20.174h4.875v8.424h3.9l6.162-8.424h5.226l-7.566 10.023L163.39 41h-5.733l-6.279-8.346zm24.242 8.619c-2.158 0-4.095-.455-5.811-1.365-1.716-.91-3.055-2.171-4.017-3.783-.962-1.638-1.443-3.484-1.443-5.538 0-2.054.481-3.887 1.443-5.499.962-1.612 2.288-2.873 3.978-3.783 1.716-.91 3.666-1.365 5.85-1.365 2.054 0 3.848.416 5.382 1.248 1.56.832 2.73 2.028 3.51 3.588l-3.744 2.184c-.598-.962-1.352-1.677-2.262-2.145-.884-.494-1.859-.741-2.925-.741-1.82 0-3.328.598-4.524 1.794-1.196 1.17-1.794 2.743-1.794 4.719 0 1.976.585 3.562 1.755 4.758 1.196 1.17 2.717 1.755 4.563 1.755 1.066 0 2.041-.234 2.925-.702.91-.494 1.664-1.222 2.262-2.184l3.744 2.184c-.806 1.56-1.989 2.769-3.549 3.627-1.534.832-3.315 1.248-5.343 1.248zm31.207-4.563V41h-20.124v-3.393l10.842-10.296c1.222-1.17 2.041-2.184 2.457-3.042.442-.884.663-1.755.663-2.613 0-1.274-.429-2.249-1.287-2.925-.858-.676-2.119-1.014-3.783-1.014-2.782 0-4.914.949-6.396 2.847l-3.549-2.73c1.066-1.43 2.496-2.535 4.29-3.315 1.82-.806 3.848-1.209 6.084-1.209 2.964 0 5.33.702 7.098 2.106 1.768 1.404 2.652 3.315 2.652 5.733a9.52 9.52 0 01-.936 4.173c-.624 1.3-1.82 2.782-3.588 4.446l-7.293 6.942h12.87zm26.691-1.911h-4.836V41h-4.914v-6.201h-14.976v-3.51L222.247 13.7h5.421l-12.675 16.809h8.931V25.01h4.758v5.499h4.836v4.29zm26.732 6.474c-.884 0-1.638-.299-2.262-.897-.624-.624-.936-1.404-.936-2.34 0-.962.299-1.742.897-2.34.624-.598 1.391-.897 2.301-.897.91 0 1.664.299 2.262.897.624.598.936 1.378.936 2.34 0 .936-.312 1.716-.936 2.34-.624.598-1.378.897-2.262.897zm20.304.117c-2.756 0-5.252-.598-7.488-1.794-2.21-1.222-3.952-2.899-5.226-5.031-1.248-2.132-1.872-4.537-1.872-7.215s.637-5.083 1.911-7.215c1.274-2.132 3.016-3.796 5.226-4.992 2.236-1.222 4.732-1.833 7.488-1.833 2.236 0 4.277.39 6.123 1.17 1.846.78 3.406 1.911 4.68 3.393l-3.276 3.081c-1.976-2.132-4.407-3.198-7.293-3.198-1.872 0-3.549.416-5.031 1.248a8.716 8.716 0 00-3.471 3.393c-.832 1.456-1.248 3.107-1.248 4.953s.416 3.497 1.248 4.953a8.986 8.986 0 003.471 3.432c1.482.806 3.159 1.209 5.031 1.209 2.886 0 5.317-1.079 7.293-3.237l3.276 3.12c-1.274 1.482-2.847 2.613-4.719 3.393-1.846.78-3.887 1.17-6.123 1.17zm33.562-.39l-5.577-7.995c-.234.026-.585.039-1.053.039h-6.162V41h-5.07V13.7h11.232c2.366 0 4.42.39 6.162 1.17 1.768.78 3.12 1.898 4.056 3.354.936 1.456 1.404 3.185 1.404 5.187 0 2.054-.507 3.822-1.521 5.304-.988 1.482-2.418 2.587-4.29 3.315l6.279 8.97h-5.46zm-.117-17.589c0-1.742-.572-3.081-1.716-4.017-1.144-.936-2.821-1.404-5.031-1.404h-5.928v10.881h5.928c2.21 0 3.887-.468 5.031-1.404 1.144-.962 1.716-2.314 1.716-4.056zM349.857 41l-.039-18.096-8.97 14.976h-2.262l-8.97-14.742V41h-4.836V13.7h4.173l10.842 18.096L350.442 13.7h4.173l.039 27.3h-4.797zM246 14c-5.514 0-10 4.486-10 10s4.486 10 10 10 10-4.486 10-10-4.486-10-10-10zm0 18.54c-4.709 0-8.54-3.831-8.54-8.54s3.831-8.54 8.54-8.54 8.54 3.831 8.54 8.54-3.831 8.54-8.54 8.54z" fill="#FFE200"/><path d="M249.406 24h-3.163v-4.38a.73.73 0 10-1.46 0v5.11c0 .403.327.73.73.73h3.893a.73.73 0 000-1.46z" fill="#FFE200"/></svg>