<svg width="70" height="70" fill="none" xmlns="http://www.w3.org/2000/svg"><path d="M40.557 39.936l-1.112-.278-2.573-.646-1.287-.322-1.286-.323V36.83c4.011-.628 7.076-4.15 7.076-8.28 0-4.625-3.752-8.388-8.363-8.388-4.61 0-8.363 3.763-8.363 8.387 0 .85.134 1.673.372 2.453a11.125 11.125 0 01-6.42 2.064H16.93c-1.064 0-1.93.868-1.93 1.935v1.29c0 1.067.866 1.936 1.93 1.936h.84l1.733 4.633v3.109H16.93c-1.064 0-1.93.868-1.93 1.935v2.58c0 1.068.866 1.936 1.93 1.936h1.02l2.119 2.126c.294.293.683.455 1.097.455.857 0 1.553-.699 1.553-1.558V52.42h1.93c1.064 0 1.93-.868 1.93-1.935v-2.58a1.935 1.935 0 00-1.93-1.936h-3.86v-2.58h1.287v-4.593a11.094 11.094 0 013.458 1.87l1.045.838v-7.602a8.325 8.325 0 003.86 2.623v4.434a3.471 3.471 0 00-2.23-.797c-.437 0-.846.17-1.154.48-.308.31-.477.722-.476 1.21 0 .26.062.522.178.755l.769 1.543c.222.445.34.944.34 1.442v2.312c0 3.913 3.175 7.097 7.076 7.097 3.902 0 7.076-3.184 7.076-7.097v-6.089c0-.89-.601-1.662-1.461-1.878zm-21.697-2.99c-.087-.003-.173-.01-.26-.01h-1.67a.645.645 0 01-.643-.646V35c0-.356.288-.645.643-.645h1.67c.087 0 .173-.008.26-.01v2.6zm5.79 10.312c.355 0 .643.29.643.645v2.58a.644.644 0 01-.644.646h-3.216v2.313c0 .219-.301.342-.456.19l-2.494-2.503H16.93a.644.644 0 01-.643-.645v-2.58c0-.357.288-.646.643-.646h7.72zm-3.86-5.161h-.198l-1.438-3.847c.551.027 1.097.096 1.636.206v3.64zm4.503-3.191a12.435 12.435 0 00-5.147-1.866v-2.789a12.445 12.445 0 005.147-1.866v6.52zm8.887-7.132a1.928 1.928 0 00-1.811-1.29 1.92 1.92 0 00-1.678 1 16.66 16.66 0 01-.235-2.29h5.112c-.032.9-.132 1.772-.293 2.58H34.18zm.119 3.752v-2.462h4.147a7.072 7.072 0 01-4.147 2.462zm5.005-3.752h-2.717c.15-.817.237-1.689.268-2.58h3.203a7.057 7.057 0 01-.754 2.58zm.003-6.451c.403.787.666 1.658.75 2.58h-3.199a17.748 17.748 0 00-.263-2.58h2.712zm-.84-1.29h-2.17c-.237-.836-.539-1.563-.895-2.156a7.108 7.108 0 013.065 2.155zm-5.455-2.581c.692 0 1.428.985 1.936 2.58h-3.872c.508-1.595 1.245-2.58 1.936-2.58zm2.264 3.87c.157.78.262 1.648.296 2.581h-5.12c.034-.933.14-1.8.296-2.58h4.528zm-4.653-3.445c-.356.593-.658 1.32-.895 2.155h-2.17a7.1 7.1 0 013.065-2.155zm-3.906 3.446h2.712a17.735 17.735 0 00-.263 2.58h-3.198a7.057 7.057 0 01.749-2.58zm-.004 6.451a7.096 7.096 0 01-.746-2.58h3.204a17.8 17.8 0 00.267 2.58h-2.725zm.845 1.29h2.881v2.092a7.048 7.048 0 01-2.881-2.091zm13.174 14.84c0 3.201-2.597 5.806-5.79 5.806s-5.79-2.605-5.79-5.807v-2.312a4.55 4.55 0 00-.475-2.02l-.769-1.543a.465.465 0 01-.042-.23.35.35 0 01.1-.246c.065-.064.15-.1.29-.1a2.17 2.17 0 011.544.64c.412.414.639.963.639 1.547v2.974h1.287V32.419a.644.644 0 111.286 0v14.194H34.3v-6.916l1.286.323v6.593h1.287v-6.27l1.287.322v5.948h1.286v-5.626l.8.2c.286.073.487.33.487.627v6.09zm13.866-21.131a3.891 3.891 0 00-3.057-3.166.637.637 0 01-.423-.313 3.202 3.202 0 001.163-2.19l.493-.495a2.8 2.8 0 00.824-1.993A3.616 3.616 0 0049.992 15h-1.794a3.616 3.616 0 00-3.606 3.616c0 .752.292 1.46.822 1.992l.494.495a3.205 3.205 0 001.163 2.19.636.636 0 01-.424.314 3.892 3.892 0 00-3.056 3.165l-.403 2.422H55l-.402-2.421zm-8.154-8.091c-.175.175-.31.38-.406.603a1.514 1.514 0 01-.16-.669 2.325 2.325 0 012.32-2.326h1.793c1.28 0 2.32 1.044 2.32 2.326 0 .236-.059.461-.16.668a1.923 1.923 0 00-.405-.603l-.91-.912-.91.912.91.912c.12.122.188.288.188.457v.756a1.935 1.935 0 01-1.93 1.936 1.935 1.935 0 01-1.93-1.936v-.756c0-.17.069-.336.19-.456l.454-.456.832.834.91-.912-1.742-1.746-1.364 1.368zm3.714 5.49l-.598.9c-.208.313-.723.313-.93 0l-.598-.9c.069-.086.13-.18.183-.279.28.082.572.14.88.14.307 0 .599-.058.88-.139.053.098.113.192.183.279zm-5.45 3.731l.152-.918a2.597 2.597 0 012.04-2.113c.014-.003.027-.009.041-.012l.618.929a1.843 1.843 0 003.071 0l.618-.929c.014.003.027.009.041.012a2.6 2.6 0 012.04 2.113l.152.918h-8.773zm9.709 18.417l-2.457-2.465-.82.385-.308-.853h-3.475l-.308.852-.819-.384-2.457 2.464.383.822-.851.31v3.485l.85.31-.384.82 2.458 2.465.819-.384.309.853h3.475l.308-.852.82.384 2.456-2.464-.383-.822.851-.31v-3.485l-.85-.309.383-.822zm-.82 3.712l-.529.193-.284.13-.275.666.361.773-1.182 1.185-.771-.362-.695.288-.292.805h-1.67l-.193-.531-.13-.285-.663-.276-.77.362-1.183-1.186.36-.773-.286-.697-.802-.292v-1.676l.529-.194.284-.13.275-.665-.36-.773 1.181-1.186.771.362.695-.288.292-.805h1.671l.193.531.13.286.663.275.771-.362 1.182 1.186-.36.773.286.697.803.292v1.677z" fill="#222"/><path d="M49.095 45.968a3.225 3.225 0 00-3.217 3.225 3.225 3.225 0 003.217 3.226 3.225 3.225 0 003.216-3.225 3.225 3.225 0 00-3.216-3.226zm0 5.161a1.935 1.935 0 010-3.87 1.935 1.935 0 010 3.87zM17.573 17.58h3.86v1.29h-3.86v-1.29zm0 2.581h3.86v1.29h-3.86v-1.29zm0 2.581h3.86v1.29h-3.86v-1.29zm5.147 25.806h1.286v1.29H22.72v-1.29zm-5.147 0h1.287v1.29h-1.287v-1.29zm2.573 0h1.287v1.29h-1.287v-1.29z" fill="#222"/><path d="M18.86 31.774h1.286v-5.161h3.86V15H15v11.613h3.86v5.161zm-2.573-6.451V16.29h6.433v9.033h-6.433zm32.164 5.161h1.287v3.87H48.45v-3.87zm0 5.161h1.287v1.29H48.45v-1.29zm0 2.581h1.287v3.87H48.45v-3.87z" fill="#222"/><circle cx="35" cy="35" r="34.5" stroke="#000" stroke-opacity=".2" stroke-dasharray="3 3"/></svg>