<svg width="70" height="70" fill="none" xmlns="http://www.w3.org/2000/svg"><path d="M52.42 24.681h-.839a5.805 5.805 0 00-7.483-8.746 5.805 5.805 0 00-1.163 8.746H35v-6.45a.645.645 0 00-.645-.646h-2.58a.645.645 0 00-.646.645v6.451h-.645v-9.03a.645.645 0 00-.645-.646h-2.58a.646.646 0 00-.646.645v9.031h-.645v-4.515a.645.645 0 00-.645-.645h-2.581a.645.645 0 00-.645.645v4.515H17.58a2.584 2.584 0 00-2.58 2.58v19.353a2.583 2.583 0 002.58 2.58h13.3l-.86 2.58h-2.116a.646.646 0 00-.645.646v1.29h-6.451a.645.645 0 100 1.29h28.387a.645.645 0 100-1.29h-6.452v-1.29a.645.645 0 00-.645-.645H39.98l-.86-2.58h13.298A2.584 2.584 0 0055 46.613V27.262a2.583 2.583 0 00-2.58-2.58zm-4.517-8.34a4.526 4.526 0 013.824 3.825h-3.824v-3.824zm-.378 5.115h4.202a4.512 4.512 0 01-7.172 2.97l2.97-2.97zm-4.783-.645a4.523 4.523 0 013.87-4.47v4.203l-2.97 2.97a4.492 4.492 0 01-.9-2.703zm-10.323-1.936h1.29v12.257h-1.29V18.875zm-1.935 7.096h.645v5.161h-.645v-5.16zm-2.58-9.676h1.29v14.837h-1.29V16.295zm-1.936 9.676h.645v5.161h-.645v-5.16zm-2.58-5.16h1.29v10.321h-1.29V20.811zm18.064 32.254v.645H28.548v-.645h12.904zm-10.073-1.29l.86-2.58h5.522l.86 2.58h-7.242zm22.33-5.161a1.292 1.292 0 01-1.29 1.29H17.581a1.292 1.292 0 01-1.29-1.29v-1.29H53.71v1.29zm0-2.58H16.29V27.262a1.292 1.292 0 011.29-1.29h4.517v5.16h-.645v-3.87a.645.645 0 00-.646-.646h-2.58a.645.645 0 00-.645.646v4.515a.645.645 0 00.645.645H38.87a.645.645 0 00.645-.645v-4.515a.645.645 0 00-.645-.646h-2.58a.645.645 0 00-.646.646v3.87H35v-5.16h9.603a5.786 5.786 0 005.31 0h2.506a1.292 1.292 0 011.29 1.29v16.772zM20.162 27.907v3.225h-1.29v-3.225h1.29zm16.774 3.225v-3.225h1.29v3.225h-1.29z" fill="#222"/><path d="M22.097 45.969h-3.871a.645.645 0 100 1.29h3.87a.645.645 0 100-1.29zm2.58 0h-.645a.645.645 0 100 1.29h.645a.645.645 0 100-1.29zm17.42-14.837a.644.644 0 00.456-.189l2.392-2.391h5.539a.646.646 0 000-1.29h-5.807a.645.645 0 00-.456.189l-2.58 2.58a.645.645 0 00.456 1.101zm8.387 7.096a1.935 1.935 0 00-1.674.965l-6.754-3.94a1.935 1.935 0 00-3.799.049l-6.796 5.097a1.933 1.933 0 00-3.346.175l-6.717-2.798a1.936 1.936 0 10-.159 1.33l6.718 2.8a1.936 1.936 0 003.786-.107l6.796-5.097a1.933 1.933 0 003.296-.084l6.754 3.94a1.935 1.935 0 101.895-2.33zm-30.323.003a.647.647 0 110-.003v.003zm9.678 3.867a.647.647 0 01-.645-.645v-.003a.645.645 0 11.645.648zm10.322-5.805a.645.645 0 110-1.291.645.645 0 010 1.29zm10.323 4.515a.645.645 0 110-1.29.645.645 0 010 1.29z" fill="#222"/><path d="M45.323 42.098h-4.517a.646.646 0 000 1.29h4.517a.645.645 0 100-1.29zm0-1.935h-1.936a.645.645 0 000 1.29h1.936a.646.646 0 000-1.29zm-27.097-5.806h7.097a.645.645 0 100-1.29h-7.097a.645.645 0 100 1.29zm9.032 0h.645a.645.645 0 100-1.29h-.645a.645.645 0 100 1.29z" fill="#222"/><circle cx="35" cy="35" r="34.5" stroke="#000" stroke-opacity=".2" stroke-dasharray="3 3"/></svg>