<svg width="26" height="14" fill="none" xmlns="http://www.w3.org/2000/svg"><path d="M23.84 2.063C22.663.733 21.007 0 19.173 0c-2.261 0-3.963 1.302-5.156 2.747a16.6 16.6 0 011.064 1.903c.916-1.32 2.288-2.653 4.092-2.653 2.546 0 4.394 2.058 4.394 4.894 0 2.835-1.848 4.893-4.394 4.893-3.64 0-5.427-5.16-5.444-5.21l-.005-.015C13.63 6.291 11.36 0 6.39 0 4.557 0 2.9.733 1.725 2.063.613 3.324 0 5.038 0 6.891c0 1.852.613 3.566 1.726 4.827 1.175 1.33 2.832 2.063 4.665 2.063 2.28 0 3.973-1.27 5.155-2.694a15.888 15.888 0 01-1.059-1.912c-.904 1.304-2.265 2.609-4.096 2.609-2.546 0-4.394-2.058-4.394-4.893 0-2.836 1.848-4.894 4.394-4.894 3.513 0 5.388 5.057 5.448 5.221.133.391 2.31 6.563 7.335 6.563 1.834 0 3.49-.733 4.665-2.063 1.113-1.26 1.726-2.975 1.726-4.827 0-1.853-.613-3.567-1.726-4.828z" fill="#222"/></svg>