<svg width="369" height="55" viewBox="0 0 369 55" fill="none" xmlns="http://www.w3.org/2000/svg">
<rect x="0.5" y="0.5" width="368" height="53" rx="2.5" stroke="#FFE200"/>
<path d="M12.861 13.7H34.116V17.873H17.853V24.581H25.926C29.202 24.581 31.685 25.27 33.375 26.648C35.091 28 35.949 29.963 35.949 32.537C35.949 35.241 35.013 37.334 33.141 38.816C31.269 40.272 28.604 41 25.146 41H12.861V13.7ZM24.873 37.1C26.823 37.1 28.305 36.723 29.319 35.969C30.333 35.215 30.84 34.123 30.84 32.693C30.84 29.885 28.851 28.481 24.873 28.481H17.853V37.1H24.873ZM40.9547 20.174H45.8297V33.902L57.3347 20.174H61.7807V41H56.9057V27.272L45.4397 41H40.9547V20.174ZM84.8355 24.308H77.5425V41H72.6675V24.308H65.3355V20.174H84.8355V24.308ZM99.9157 19.94C101.944 19.94 103.751 20.382 105.337 21.266C106.949 22.15 108.21 23.398 109.12 25.01C110.03 26.622 110.485 28.481 110.485 30.587C110.485 32.693 110.03 34.565 109.12 36.203C108.21 37.815 106.949 39.063 105.337 39.947C103.751 40.831 101.944 41.273 99.9157 41.273C97.1077 41.273 94.8847 40.337 93.2467 38.465V48.566H88.3717V20.174H93.0127V22.904C93.8187 21.916 94.8067 21.175 95.9767 20.681C97.1727 20.187 98.4857 19.94 99.9157 19.94ZM99.3697 37.1C101.164 37.1 102.633 36.502 103.777 35.306C104.947 34.11 105.532 32.537 105.532 30.587C105.532 28.637 104.947 27.064 103.777 25.868C102.633 24.672 101.164 24.074 99.3697 24.074C98.1997 24.074 97.1467 24.347 96.2107 24.893C95.2747 25.413 94.5337 26.167 93.9877 27.155C93.4417 28.143 93.1687 29.287 93.1687 30.587C93.1687 31.887 93.4417 33.031 93.9877 34.019C94.5337 35.007 95.2747 35.774 96.2107 36.32C97.1467 36.84 98.1997 37.1 99.3697 37.1ZM115.337 20.174H120.212V33.902L131.717 20.174H136.163V41H131.288V27.272L119.822 41H115.337V20.174ZM151.378 32.654H147.595V41H142.72V20.174H147.595V28.598H151.495L157.657 20.174H162.883L155.317 30.197L163.39 41H157.657L151.378 32.654ZM175.62 41.273C173.462 41.273 171.525 40.818 169.809 39.908C168.093 38.998 166.754 37.737 165.792 36.125C164.83 34.487 164.349 32.641 164.349 30.587C164.349 28.533 164.83 26.7 165.792 25.088C166.754 23.476 168.08 22.215 169.77 21.305C171.486 20.395 173.436 19.94 175.62 19.94C177.674 19.94 179.468 20.356 181.002 21.188C182.562 22.02 183.732 23.216 184.512 24.776L180.768 26.96C180.17 25.998 179.416 25.283 178.506 24.815C177.622 24.321 176.647 24.074 175.581 24.074C173.761 24.074 172.253 24.672 171.057 25.868C169.861 27.038 169.263 28.611 169.263 30.587C169.263 32.563 169.848 34.149 171.018 35.345C172.214 36.515 173.735 37.1 175.581 37.1C176.647 37.1 177.622 36.866 178.506 36.398C179.416 35.904 180.17 35.176 180.768 34.214L184.512 36.398C183.706 37.958 182.523 39.167 180.963 40.025C179.429 40.857 177.648 41.273 175.62 41.273ZM206.827 36.71V41H186.703V37.607L197.545 27.311C198.767 26.141 199.586 25.127 200.002 24.269C200.444 23.385 200.665 22.514 200.665 21.656C200.665 20.382 200.236 19.407 199.378 18.731C198.52 18.055 197.259 17.717 195.595 17.717C192.813 17.717 190.681 18.666 189.199 20.564L185.65 17.834C186.716 16.404 188.146 15.299 189.94 14.519C191.76 13.713 193.788 13.31 196.024 13.31C198.988 13.31 201.354 14.012 203.122 15.416C204.89 16.82 205.774 18.731 205.774 21.149C205.774 22.631 205.462 24.022 204.838 25.322C204.214 26.622 203.018 28.104 201.25 29.768L193.957 36.71H206.827ZM233.518 34.799H228.682V41H223.768V34.799H208.792V31.289L222.247 13.7H227.668L214.993 30.509H223.924V25.01H228.682V30.509H233.518V34.799ZM260.25 41.273C259.366 41.273 258.612 40.974 257.988 40.376C257.364 39.752 257.052 38.972 257.052 38.036C257.052 37.074 257.351 36.294 257.949 35.696C258.573 35.098 259.34 34.799 260.25 34.799C261.16 34.799 261.914 35.098 262.512 35.696C263.136 36.294 263.448 37.074 263.448 38.036C263.448 38.972 263.136 39.752 262.512 40.376C261.888 40.974 261.134 41.273 260.25 41.273ZM280.554 41.39C277.798 41.39 275.302 40.792 273.066 39.596C270.856 38.374 269.114 36.697 267.84 34.565C266.592 32.433 265.968 30.028 265.968 27.35C265.968 24.672 266.605 22.267 267.879 20.135C269.153 18.003 270.895 16.339 273.105 15.143C275.341 13.921 277.837 13.31 280.593 13.31C282.829 13.31 284.87 13.7 286.716 14.48C288.562 15.26 290.122 16.391 291.396 17.873L288.12 20.954C286.144 18.822 283.713 17.756 280.827 17.756C278.955 17.756 277.278 18.172 275.796 19.004C274.314 19.81 273.157 20.941 272.325 22.397C271.493 23.853 271.077 25.504 271.077 27.35C271.077 29.196 271.493 30.847 272.325 32.303C273.157 33.759 274.314 34.903 275.796 35.735C277.278 36.541 278.955 36.944 280.827 36.944C283.713 36.944 286.144 35.865 288.12 33.707L291.396 36.827C290.122 38.309 288.549 39.44 286.677 40.22C284.831 41 282.79 41.39 280.554 41.39ZM314.116 41L308.539 33.005C308.305 33.031 307.954 33.044 307.486 33.044H301.324V41H296.254V13.7H307.486C309.852 13.7 311.906 14.09 313.648 14.87C315.416 15.65 316.768 16.768 317.704 18.224C318.64 19.68 319.108 21.409 319.108 23.411C319.108 25.465 318.601 27.233 317.587 28.715C316.599 30.197 315.169 31.302 313.297 32.03L319.576 41H314.116ZM313.999 23.411C313.999 21.669 313.427 20.33 312.283 19.394C311.139 18.458 309.462 17.99 307.252 17.99H301.324V28.871H307.252C309.462 28.871 311.139 28.403 312.283 27.467C313.427 26.505 313.999 25.153 313.999 23.411ZM349.857 41L349.818 22.904L340.848 37.88H338.586L329.616 23.138V41H324.78V13.7H328.953L339.795 31.796L350.442 13.7H354.615L354.654 41H349.857Z" fill="#FFE200"/>
<path d="M246 14C240.486 14 236 18.4859 236 24C236 29.5141 240.486 34 246 34C251.514 34 256 29.5141 256 24C256 18.4859 251.514 14 246 14ZM246 32.5402C241.291 32.5402 237.46 28.709 237.46 24C237.46 19.291 241.291 15.4598 246 15.4598C250.709 15.4598 254.54 19.291 254.54 23.9998C254.54 28.709 250.709 32.5402 246 32.5402Z" fill="#FFE200"/>
<path d="M249.406 24H246.243V19.6204C246.243 19.2173 245.917 18.8905 245.513 18.8905C245.11 18.8905 244.783 19.2173 244.783 19.6204V24.7299C244.783 25.1331 245.11 25.4598 245.513 25.4598H249.406C249.809 25.4598 250.136 25.1331 250.136 24.7299C250.136 24.3268 249.809 24 249.406 24Z" fill="#FFE200"/>
</svg>
