<svg width="40" height="20" viewBox="0 0 40 20" fill="none" xmlns="http://www.w3.org/2000/svg">
<path d="M39.789 10.5488L31.2248 19.7738C30.9442 20.0759 30.4899 20.0754 30.2097 19.7723C29.9298 19.4692 29.9306 18.9782 30.2112 18.6759L38.2657 9.99996L30.2109 1.32406C29.9303 1.02172 29.9296 0.531054 30.2095 0.22793C30.3499 0.0759773 30.5338 0 30.7178 0C30.9013 0 31.0846 0.07547 31.2247 0.226368L39.789 9.45114C39.9242 9.59637 40 9.79403 40 9.99996C40 10.2059 39.9239 10.4033 39.789 10.5488Z" fill="#222222"/>
<path d="M24.789 10.5488L16.2248 19.7738C15.9442 20.0759 15.4899 20.0754 15.2097 19.7723C14.9298 19.4692 14.9306 18.9782 15.2112 18.6759L23.2657 9.99996L15.2109 1.32406C14.9303 1.02172 14.9296 0.531054 15.2095 0.22793C15.3499 0.0759773 15.5338 0 15.7178 0C15.9013 0 16.0846 0.07547 16.2247 0.226368L24.789 9.45114C24.9242 9.59637 25 9.79403 25 9.99996C25 10.2059 24.9239 10.4033 24.789 10.5488Z" fill="#222222" fill-opacity="0.6"/>
<path d="M9.78902 10.5488L1.22476 19.7738C0.944166 20.0759 0.489872 20.0754 0.209744 19.7723C-0.0701666 19.4692 -0.0694433 18.9782 0.211191 18.6759L8.26567 9.99996L0.210901 1.32406C-0.0696966 1.02172 -0.0704199 0.531054 0.209455 0.22793C0.34988 0.0759773 0.533847 0 0.717815 0C0.901312 0 1.08456 0.07547 1.22473 0.226368L9.78902 9.45114C9.92416 9.59637 10 9.79403 10 9.99996C10 10.2059 9.92395 10.4033 9.78902 10.5488Z" fill="#222222" fill-opacity="0.3"/>
</svg>
