<svg width="70" height="70" viewBox="0 0 70 70" fill="none" xmlns="http://www.w3.org/2000/svg">
<path d="M33.7096 50.8614L32.8754 50.0272L31.9631 50.9395L33.7096 52.6859L38.0367 48.3588L37.1244 47.4466L33.7096 50.8614Z" fill="#222222"/>
<path d="M38.0367 18.6819L37.1244 17.7697L33.7096 21.1845L32.8754 20.3503L31.9631 21.2625L33.7096 23.0089L38.0367 18.6819Z" fill="#222222"/>
<path d="M49.1936 33.0643C50.9723 33.0643 52.4194 31.6172 52.4194 29.8385C52.4194 28.0598 50.9723 26.6127 49.1936 26.6127C47.4149 26.6127 45.9678 28.0598 45.9678 29.8385C45.9678 31.6172 47.4149 33.0643 49.1936 33.0643ZM49.1936 27.903C50.2607 27.903 51.1291 28.7714 51.1291 29.8385C51.1291 30.9056 50.2607 31.774 49.1936 31.774C48.1265 31.774 47.2581 30.9056 47.2581 29.8385C47.2581 28.7714 48.1265 27.903 49.1936 27.903Z" fill="#222222"/>
<path d="M52.2045 36.0952L54.22 32.6404C54.7303 31.7649 55 30.7682 55 29.7559C55 26.5998 52.4323 24.0321 49.2761 24.0321H49.111C45.9548 24.0321 43.3871 26.5998 43.3871 29.7559C43.3871 30.7682 43.6568 31.7649 44.1665 32.6397L45.1671 34.3546H38.871C37.8039 34.3546 36.9355 35.2229 36.9355 36.29V45.057C36.5284 44.8918 36.0955 44.7783 35.6452 44.7215V25.2779C38.1871 24.9586 40.1613 22.7883 40.1613 20.1612C40.1613 17.3155 37.8458 15 35 15C32.1542 15 29.8387 17.3155 29.8387 20.1612C29.8387 21.787 30.5961 23.2373 31.7742 24.1838V40.8061C31.7742 41.1622 31.4845 41.4512 31.129 41.4512H30.4839V40.3364C30.4839 38.8074 29.3955 37.4771 27.8968 37.1745L25.6135 36.7165C25.2897 36.6236 25.0239 36.4068 24.8581 36.1242C25.2116 35.8139 25.5026 35.4358 25.6942 34.9997H25.9677C27.0348 34.9997 27.9032 34.1313 27.9032 33.0643C27.9032 32.5301 27.6852 32.0456 27.3342 31.6946C28.0684 31.103 28.5484 30.2075 28.5484 29.1933C28.5484 27.4147 27.1013 25.9676 25.3226 25.9676C24.5774 25.9676 23.8987 26.2321 23.3516 26.6586C23.1735 26.6315 22.9942 26.6127 22.8135 26.6127H20.5226C18.5445 26.6127 16.9355 28.2218 16.9355 30.1998C16.9355 31.0011 17.2129 31.7823 17.7026 32.4094C17.6277 32.6146 17.5806 32.8333 17.5806 33.0643C17.5806 34.1313 18.449 34.9997 19.5161 34.9997H19.7897C19.9813 35.4365 20.2729 35.8145 20.6265 36.1249C20.4639 36.4061 20.2077 36.6203 19.9206 36.7036L17.5871 37.1745C16.0884 37.4777 15 38.8074 15 40.3364V44.0318H30.4839V42.7415H31.129C32.1961 42.7415 33.0645 41.8731 33.0645 40.8061V24.9425C33.4716 25.1076 33.9045 25.2212 34.3548 25.2779V44.7221C31.8129 45.0415 29.8387 47.2118 29.8387 49.8388C29.8387 52.6846 32.1542 55 35 55C37.8458 55 40.1613 52.6846 40.1613 49.8388C40.1613 48.213 39.4039 46.7627 38.2258 45.8163V36.29C38.2258 35.9339 38.5155 35.6449 38.871 35.6449H45.92L46.1826 36.0952C44.4387 36.659 43.3871 37.681 43.3871 38.8706C43.3871 40.7099 45.8832 42.0964 49.1935 42.0964C52.5039 42.0964 55 40.7099 55 38.8706C55 37.681 53.9484 36.659 52.2045 36.0952ZM20.8065 33.7094V32.4191C20.8065 32.1056 21.0316 31.843 21.3284 31.7856C22.2187 32.2004 23.2026 32.4191 24.1845 32.4191H24.6774V33.7094C24.6774 34.7765 23.809 35.6449 22.7419 35.6449C21.6748 35.6449 20.8065 34.7765 20.8065 33.7094ZM25.9677 33.7094V32.4191C26.3232 32.4191 26.6129 32.7088 26.6129 33.0643C26.6129 33.4197 26.3232 33.7094 25.9677 33.7094ZM18.871 33.0643C18.871 32.7088 19.1606 32.4191 19.5161 32.4191V33.7094C19.1606 33.7094 18.871 33.4197 18.871 33.0643ZM20.0194 31.1288H19.5161C19.1703 31.1288 18.8497 31.2275 18.5677 31.3875C18.3523 31.0301 18.2258 30.6211 18.2258 30.1998C18.2258 28.9334 19.2561 27.903 20.5226 27.903H22.3703C22.1961 28.2992 22.0968 28.734 22.0968 29.1933H23.3871C23.3871 28.1263 24.2555 27.2579 25.3226 27.2579C26.3897 27.2579 27.2581 28.1263 27.2581 29.1933C27.2581 30.2604 26.3897 31.1288 25.3226 31.1288H24.1845C23.3406 31.1288 22.4955 30.9295 21.74 30.5514L21.6039 30.4837H21.4516C20.8819 30.4837 20.3742 30.7359 20.0194 31.1288ZM22.7419 36.9352C23.091 36.9352 23.4206 36.8655 23.7361 36.7623C23.8155 36.8984 23.9084 37.0255 24.011 37.1448C23.9103 37.7564 23.3819 38.2255 22.7419 38.2255C22.1032 38.2255 21.5755 37.7584 21.4735 37.1487C21.5761 37.0287 21.6697 36.9003 21.749 36.7623C22.0632 36.8655 22.3929 36.9352 22.7419 36.9352ZM29.1935 42.7415H16.2903V40.3364C16.2903 39.419 16.9432 38.6209 17.8426 38.4397L20.2258 37.9564C20.2703 37.9435 20.3123 37.9248 20.3555 37.9093C20.7406 38.8506 21.6639 39.5158 22.7419 39.5158C23.8187 39.5158 24.7413 38.8519 25.1277 37.9048C25.1877 37.9268 25.2458 37.9513 25.3084 37.9693L27.6413 38.4397C28.5406 38.6209 29.1935 39.4196 29.1935 40.3364V42.7415ZM31.129 20.1612C31.129 18.0264 32.8652 16.2903 35 16.2903C37.1348 16.2903 38.871 18.0264 38.871 20.1612C38.871 22.296 37.1348 24.0321 35 24.0321C32.8652 24.0321 31.129 22.296 31.129 20.1612ZM38.871 49.8382C38.871 51.973 37.1348 53.7091 35 53.7091C32.8652 53.7091 31.129 51.973 31.129 49.8382C31.129 47.7034 32.8652 45.9673 35 45.9673C37.1348 45.9673 38.871 47.7034 38.871 49.8382ZM49.111 25.3224H49.2761C51.7206 25.3224 53.7097 27.3114 53.7097 29.7559C53.7097 30.5398 53.5006 31.312 53.1058 31.9894L49.6064 37.9874C49.4355 38.2809 48.951 38.2809 48.7806 37.9874L45.2813 31.9894C44.8865 31.312 44.6774 30.5398 44.6774 29.7559C44.6774 27.3114 46.6665 25.3224 49.111 25.3224ZM49.1935 40.8061C46.609 40.8061 44.6774 39.7841 44.6774 38.8706C44.6774 38.2558 45.5703 37.6048 46.8523 37.2429L47.6665 38.6384C47.9819 39.1796 48.5671 39.5158 49.1935 39.5158C49.82 39.5158 50.4052 39.1796 50.7213 38.6384L51.5355 37.2429C52.8168 37.6048 53.7097 38.2558 53.7097 38.8706C53.7097 39.7841 51.7781 40.8061 49.1935 40.8061Z" fill="#222222"/>
<path d="M17.5807 45.3221H26.6129V46.6124H17.5807V45.3221Z" fill="#222222"/>
<path d="M17.5807 47.9027H26.6129V49.193H17.5807V47.9027Z" fill="#222222"/>
<path d="M20.1614 50.4833H21.4517V51.7736H20.1614V50.4833Z" fill="#222222"/>
<path d="M17.5807 50.4833H18.871V51.7736H17.5807V50.4833Z" fill="#222222"/>
<path d="M22.7419 50.4833H24.0323V51.7736H22.7419V50.4833Z" fill="#222222"/>
<path d="M25.3225 50.4833H26.6128V51.7736H25.3225V50.4833Z" fill="#222222"/>
<circle cx="35" cy="35" r="34.5" stroke="black" stroke-opacity="0.2" stroke-dasharray="3 3"/>
</svg>
