<svg width="70" height="70" viewBox="0 0 70 70" fill="none" xmlns="http://www.w3.org/2000/svg">
<path d="M52.4194 24.6812H51.5814C52.3301 23.8463 52.8208 22.8125 52.9945 21.7047C53.1681 20.5969 53.0172 19.4625 52.56 18.4386C52.1027 17.4147 51.3587 16.5451 50.4179 15.9349C49.477 15.3247 48.3795 15 47.2581 15C46.1366 15 45.0391 15.3247 44.0983 15.9349C43.1574 16.5451 42.4134 17.4147 41.9562 18.4386C41.4989 19.4625 41.348 20.5969 41.5216 21.7047C41.6953 22.8125 42.1861 23.8463 42.9347 24.6812H35V18.2304C35 18.0593 34.932 17.8952 34.811 17.7743C34.69 17.6533 34.5259 17.5853 34.3548 17.5853H31.7742C31.6031 17.5853 31.439 17.6533 31.318 17.7743C31.197 17.8952 31.129 18.0593 31.129 18.2304V24.6812H30.4839V15.6501C30.4839 15.479 30.4159 15.3149 30.2949 15.1939C30.1739 15.073 30.0098 15.005 29.8387 15.005H27.2581C27.087 15.005 26.9229 15.073 26.8019 15.1939C26.6809 15.3149 26.6129 15.479 26.6129 15.6501V24.6812H25.9677V20.1657C25.9677 19.9946 25.8998 19.8305 25.7788 19.7095C25.6578 19.5885 25.4937 19.5206 25.3226 19.5206H22.7419C22.5708 19.5206 22.4067 19.5885 22.2857 19.7095C22.1647 19.8305 22.0968 19.9946 22.0968 20.1657V24.6812H17.5806C16.8965 24.682 16.2405 24.9541 15.7567 25.4378C15.2729 25.9216 15.0008 26.5774 15 27.2615V46.614C15.0008 47.2981 15.2729 47.9539 15.7567 48.4377C16.2405 48.9214 16.8965 49.1935 17.5806 49.1943H30.879L30.0185 51.7746H27.9032C27.7321 51.7746 27.568 51.8426 27.447 51.9635C27.326 52.0845 27.2581 52.2486 27.2581 52.4197V53.7098H20.8065C20.6353 53.7098 20.4712 53.7778 20.3503 53.8988C20.2293 54.0198 20.1613 54.1838 20.1613 54.3549C20.1613 54.526 20.2293 54.6901 20.3503 54.8111C20.4712 54.932 20.6353 55 20.8065 55H49.1935C49.3647 55 49.5288 54.932 49.6497 54.8111C49.7707 54.6901 49.8387 54.526 49.8387 54.3549C49.8387 54.1838 49.7707 54.0198 49.6497 53.8988C49.5288 53.7778 49.3647 53.7098 49.1935 53.7098H42.7419V52.4197C42.7419 52.2486 42.674 52.0845 42.553 51.9635C42.432 51.8426 42.2679 51.7746 42.0968 51.7746H39.9814L39.121 49.1943H52.4194C53.1035 49.1935 53.7595 48.9214 54.2433 48.4377C54.7271 47.9539 54.9992 47.2981 55 46.614V27.2615C54.9992 26.5774 54.7271 25.9216 54.2433 25.4378C53.7595 24.9541 53.1035 24.682 52.4194 24.6812ZM47.9032 16.3419C48.8674 16.4826 49.7605 16.9308 50.4495 17.6197C51.1385 18.3086 51.5867 19.2016 51.7274 20.1657H47.9032V16.3419ZM47.525 21.4558H51.7274C51.616 22.231 51.3047 22.9638 50.8242 23.5822C50.3437 24.2006 49.7106 24.6834 48.9869 24.983C48.2633 25.2826 47.4742 25.3887 46.6971 25.291C45.92 25.1933 45.1817 24.8951 44.5548 24.4256L47.525 21.4558ZM42.7419 20.8107C42.7435 19.7254 43.1354 18.6768 43.846 17.8563C44.5567 17.0359 45.5387 16.4984 46.6129 16.3419V20.5438L43.6427 23.5136C43.0571 22.7343 42.7409 21.7856 42.7419 20.8107ZM32.4194 18.8755H33.7097V31.132H32.4194V18.8755ZM30.4839 25.9714H31.129V31.132H30.4839V25.9714ZM27.9032 16.2952H29.1935V31.132H27.9032V16.2952ZM25.9677 25.9714H26.6129V31.132H25.9677V25.9714ZM23.3871 20.8107H24.6774V31.132H23.3871V20.8107ZM41.4516 53.0648V53.7098H28.5484V53.0648H41.4516ZM31.379 51.7746L32.2395 49.1943H37.7605L38.621 51.7746H31.379ZM53.7097 46.614C53.7092 46.956 53.5731 47.2839 53.3313 47.5257C53.0894 47.7676 52.7614 47.9037 52.4194 47.9041H17.5806C17.2386 47.9037 16.9106 47.7676 16.6687 47.5257C16.4269 47.2839 16.2908 46.956 16.2903 46.614V45.3238H53.7097V46.614ZM53.7097 44.0336H16.2903V27.2615C16.2908 26.9195 16.4269 26.5916 16.6687 26.3498C16.9106 26.1079 17.2386 25.9718 17.5806 25.9714H22.0968V31.132H21.4516V27.2615C21.4516 27.0905 21.3836 26.9264 21.2626 26.8054C21.1417 26.6844 20.9776 26.6165 20.8065 26.6165H18.2258C18.0547 26.6165 17.8906 26.6844 17.7696 26.8054C17.6486 26.9264 17.5806 27.0905 17.5806 27.2615V31.7771C17.5806 31.9482 17.6486 32.1123 17.7696 32.2332C17.8906 32.3542 18.0547 32.4222 18.2258 32.4222H38.871C39.0421 32.4222 39.2062 32.3542 39.3272 32.2332C39.4482 32.1123 39.5161 31.9482 39.5161 31.7771V27.2615C39.5161 27.0905 39.4482 26.9264 39.3272 26.8054C39.2062 26.6844 39.0421 26.6165 38.871 26.6165H36.2903C36.1192 26.6165 35.9551 26.6844 35.8341 26.8054C35.7131 26.9264 35.6452 27.0905 35.6452 27.2615V31.132H35V25.9714H44.6032C45.424 26.3953 46.3343 26.6165 47.2581 26.6165C48.1818 26.6165 49.0922 26.3953 49.9129 25.9714H52.4194C52.7614 25.9718 53.0894 26.1079 53.3313 26.3498C53.5731 26.5916 53.7092 26.9195 53.7097 27.2615V44.0336ZM20.1613 27.9066V31.132H18.871V27.9066H20.1613ZM36.9355 31.132V27.9066H38.2258V31.132H36.9355Z" fill="#222222"/>
<path d="M22.0968 45.9689H18.2258C18.0547 45.9689 17.8906 46.0368 17.7697 46.1578C17.6487 46.2788 17.5807 46.4429 17.5807 46.614C17.5807 46.785 17.6487 46.9491 17.7697 47.0701C17.8906 47.1911 18.0547 47.259 18.2258 47.259H22.0968C22.2679 47.259 22.432 47.1911 22.553 47.0701C22.674 46.9491 22.742 46.785 22.742 46.614C22.742 46.4429 22.674 46.2788 22.553 46.1578C22.432 46.0368 22.2679 45.9689 22.0968 45.9689Z" fill="#222222"/>
<path d="M24.6774 45.9689H24.0322C23.8611 45.9689 23.697 46.0368 23.576 46.1578C23.4551 46.2788 23.3871 46.4429 23.3871 46.614C23.3871 46.785 23.4551 46.9491 23.576 47.0701C23.697 47.1911 23.8611 47.259 24.0322 47.259H24.6774C24.8485 47.259 25.0126 47.1911 25.1336 47.0701C25.2546 46.9491 25.3226 46.785 25.3226 46.614C25.3226 46.4429 25.2546 46.2788 25.1336 46.1578C25.0126 46.0368 24.8485 45.9689 24.6774 45.9689Z" fill="#222222"/>
<path d="M42.0967 31.132C42.1815 31.1321 42.2654 31.1155 42.3437 31.0831C42.422 31.0507 42.4931 31.0031 42.5529 30.9431L44.9445 28.5517H50.4838C50.6549 28.5517 50.819 28.4837 50.94 28.3628C51.061 28.2418 51.129 28.0777 51.129 27.9066C51.129 27.7355 51.061 27.5715 50.94 27.4505C50.819 27.3295 50.6549 27.2615 50.4838 27.2615H44.6774C44.5926 27.2615 44.5087 27.2782 44.4305 27.3106C44.3522 27.343 44.2811 27.3906 44.2212 27.4505L41.6405 30.0308C41.5503 30.121 41.4888 30.2359 41.4639 30.3611C41.439 30.4862 41.4518 30.6159 41.5007 30.7338C41.5495 30.8517 41.6322 30.9524 41.7383 31.0233C41.8444 31.0942 41.9691 31.132 42.0967 31.132Z" fill="#222222"/>
<path d="M50.4839 38.2279C50.1448 38.2281 49.8118 38.3174 49.5181 38.4868C49.2244 38.6562 48.9804 38.8998 48.8105 39.1931L42.0564 35.2533C41.9649 34.8137 41.7234 34.4196 41.3732 34.1385C41.023 33.8574 40.5859 33.7068 40.1369 33.7125C39.6879 33.7182 39.2548 33.8799 38.9119 34.1698C38.5689 34.4597 38.3375 34.8599 38.2572 35.3017L31.4605 40.3986C31.2756 40.1139 31.019 39.8829 30.7164 39.7288C30.4139 39.5747 30.0762 39.5029 29.7371 39.5207C29.3981 39.5386 29.0697 39.6453 28.785 39.8303C28.5003 40.0152 28.2693 40.2719 28.1153 40.5744L21.3976 37.7755C21.2916 37.3336 21.0335 36.9431 20.6685 36.6723C20.3035 36.4015 19.8549 36.2677 19.4012 36.2943C18.9475 36.321 18.5177 36.5063 18.1869 36.8179C17.8561 37.1295 17.6455 37.5476 17.5919 37.9988C17.5383 38.4501 17.6452 38.9058 17.8938 39.2862C18.1424 39.6666 18.517 39.9474 18.9518 40.0795C19.3867 40.2116 19.8542 40.1865 20.2724 40.0087C20.6906 39.8309 21.033 39.5116 21.2395 39.1068L27.9572 41.9057C28.061 42.3372 28.3099 42.72 28.6624 42.9899C29.0149 43.2597 29.4494 43.4002 29.8932 43.3877C30.3369 43.3752 30.7629 43.2106 31.0996 42.9214C31.4364 42.6321 31.6634 42.236 31.7427 41.7992L38.5395 36.7023C38.7195 36.9796 38.9677 37.2062 39.2603 37.3602C39.553 37.5143 39.8802 37.5907 40.2108 37.5822C40.5414 37.5737 40.8642 37.4806 41.1486 37.3117C41.4329 37.1428 41.6691 36.9038 41.8347 36.6176L48.5887 40.5574C48.6632 40.9156 48.8378 41.2453 49.0921 41.5083C49.3465 41.7714 49.6702 41.9569 50.0257 42.0434C50.3812 42.13 50.7539 42.114 51.1007 41.9974C51.4475 41.8807 51.7542 41.6681 51.985 41.3843C52.2159 41.1005 52.3616 40.7571 52.4053 40.3938C52.4489 40.0306 52.3886 39.6624 52.2315 39.332C52.0744 39.0017 51.8268 38.7226 51.5175 38.5271C51.2081 38.3317 50.8497 38.228 50.4839 38.2279ZM20.1613 38.2311C20.1608 38.4025 20.0924 38.5667 19.971 38.6876C19.8496 38.8086 19.6851 38.8764 19.5137 38.8762C19.3423 38.876 19.178 38.8078 19.0569 38.6865C18.9358 38.5653 18.8677 38.4009 18.8677 38.2295C18.8677 38.0581 18.9358 37.8938 19.0569 37.7725C19.178 37.6513 19.3423 37.583 19.5137 37.5828C19.6851 37.5826 19.8496 37.6504 19.971 37.7714C20.0924 37.8923 20.1608 38.0565 20.1613 38.2279V38.2311ZM29.8387 42.0984C29.6677 42.0981 29.5037 42.0301 29.3827 41.9092C29.2618 41.7883 29.1938 41.6243 29.1935 41.4533V41.4501C29.1942 41.3226 29.2325 41.1982 29.3038 41.0926C29.3751 40.9869 29.4761 40.9047 29.594 40.8564C29.712 40.8081 29.8416 40.7958 29.9665 40.821C30.0915 40.8463 30.2061 40.908 30.296 40.9983C30.3859 41.0886 30.447 41.2036 30.4717 41.3286C30.4963 41.4537 30.4833 41.5832 30.4344 41.7009C30.3855 41.8186 30.3028 41.9191 30.1968 41.9899C30.0908 42.0606 29.9662 42.0984 29.8387 42.0984ZM40.1613 36.2927C40.0337 36.2927 39.9089 36.2548 39.8028 36.1839C39.6967 36.1131 39.614 36.0123 39.5652 35.8944C39.5164 35.7766 39.5036 35.6469 39.5285 35.5217C39.5534 35.3966 39.6148 35.2817 39.7051 35.1914C39.7953 35.1012 39.9103 35.0398 40.0354 35.0149C40.1606 34.99 40.2903 35.0028 40.4082 35.0516C40.5261 35.1004 40.6268 35.1831 40.6977 35.2892C40.7686 35.3953 40.8064 35.52 40.8064 35.6476C40.8062 35.8186 40.7381 35.9825 40.6172 36.1035C40.4963 36.2244 40.3323 36.2924 40.1613 36.2927ZM50.4839 40.8082C50.3563 40.8082 50.2315 40.7704 50.1254 40.6995C50.0193 40.6286 49.9366 40.5279 49.8878 40.41C49.839 40.2921 49.8262 40.1624 49.8511 40.0373C49.876 39.9122 49.9374 39.7972 50.0277 39.707C50.1179 39.6168 50.2328 39.5553 50.358 39.5305C50.4831 39.5056 50.6129 39.5183 50.7307 39.5672C50.8486 39.616 50.9494 39.6987 51.0203 39.8048C51.0912 39.9108 51.129 40.0356 51.129 40.1631C51.1288 40.3342 51.0607 40.4981 50.9398 40.619C50.8188 40.7399 50.6549 40.808 50.4839 40.8082Z" fill="#222222"/>
<path d="M45.3227 42.0984H40.8065C40.6354 42.0984 40.4713 42.1664 40.3503 42.2873C40.2293 42.4083 40.1614 42.5724 40.1614 42.7435C40.1614 42.9146 40.2293 43.0786 40.3503 43.1996C40.4713 43.3206 40.6354 43.3885 40.8065 43.3885H45.3227C45.4938 43.3885 45.6579 43.3206 45.7789 43.1996C45.8999 43.0786 45.9678 42.9146 45.9678 42.7435C45.9678 42.5724 45.8999 42.4083 45.7789 42.2873C45.6579 42.1664 45.4938 42.0984 45.3227 42.0984Z" fill="#222222"/>
<path d="M45.3226 40.1631H43.3871C43.216 40.1631 43.0519 40.2311 42.9309 40.3521C42.8099 40.4731 42.7419 40.6371 42.7419 40.8082C42.7419 40.9793 42.8099 41.1434 42.9309 41.2644C43.0519 41.3853 43.216 41.4533 43.3871 41.4533H45.3226C45.4937 41.4533 45.6578 41.3853 45.7788 41.2644C45.8998 41.1434 45.9677 40.9793 45.9677 40.8082C45.9677 40.6371 45.8998 40.4731 45.7788 40.3521C45.6578 40.2311 45.4937 40.1631 45.3226 40.1631Z" fill="#222222"/>
<path d="M18.2258 34.3574H25.3226C25.4937 34.3574 25.6578 34.2895 25.7788 34.1685C25.8998 34.0475 25.9678 33.8834 25.9678 33.7123C25.9678 33.5413 25.8998 33.3772 25.7788 33.2562C25.6578 33.1352 25.4937 33.0673 25.3226 33.0673H18.2258C18.0547 33.0673 17.8906 33.1352 17.7697 33.2562C17.6487 33.3772 17.5807 33.5413 17.5807 33.7123C17.5807 33.8834 17.6487 34.0475 17.7697 34.1685C17.8906 34.2895 18.0547 34.3574 18.2258 34.3574Z" fill="#222222"/>
<path d="M27.2581 34.3574H27.9032C28.0743 34.3574 28.2384 34.2895 28.3594 34.1685C28.4804 34.0475 28.5484 33.8834 28.5484 33.7123C28.5484 33.5413 28.4804 33.3772 28.3594 33.2562C28.2384 33.1352 28.0743 33.0673 27.9032 33.0673H27.2581C27.087 33.0673 26.9229 33.1352 26.8019 33.2562C26.6809 33.3772 26.6129 33.5413 26.6129 33.7123C26.6129 33.8834 26.6809 34.0475 26.8019 34.1685C26.9229 34.2895 27.087 34.3574 27.2581 34.3574Z" fill="#222222"/>
<circle cx="35" cy="35" r="34.5" stroke="black" stroke-opacity="0.2" stroke-dasharray="3 3"/>
</svg>
