<svg width="70" height="70" viewBox="0 0 70 70" fill="none" xmlns="http://www.w3.org/2000/svg">
<path d="M40.5568 39.9361L39.4452 39.6581V39.6574L36.872 39.0123L35.5854 38.6897L34.2988 38.3671V36.829C38.3104 36.2013 41.375 32.6787 41.375 28.5484C41.375 23.9239 37.6234 20.1613 33.0122 20.1613C28.4011 20.1613 24.6494 23.9239 24.6494 28.5484C24.6494 29.3981 24.7832 30.2206 25.0206 31.0013C23.1537 32.3297 20.8945 33.0645 18.6005 33.0645H16.9299C15.8659 33.0645 15 33.9329 15 35V36.2903C15 37.3574 15.8659 38.2258 16.9299 38.2258H17.7707L19.5031 42.8593V45.9677H16.9299C15.8659 45.9677 15 46.8361 15 47.9032V50.4839C15 51.551 15.8659 52.4193 16.9299 52.4193H17.9501L20.0685 54.5445C20.3625 54.8381 20.7517 55 21.166 55C22.0228 55 22.7195 54.3013 22.7195 53.4419V52.4193H24.6494C25.7134 52.4193 26.5793 51.551 26.5793 50.4839V47.9032C26.5793 46.8361 25.7134 45.9677 24.6494 45.9677H20.7896V43.3871H22.0762V38.7955C23.3236 39.2084 24.4995 39.8355 25.5339 40.6652L26.5793 41.5032V33.9013C27.5712 35.1013 28.8951 36.0252 30.439 36.5245V40.9581C29.8208 40.451 29.0579 40.1613 28.2081 40.1613C27.772 40.1613 27.3635 40.3316 27.0553 40.6406C26.7472 40.9503 26.578 41.3626 26.5793 41.8503C26.5793 42.111 26.641 42.3729 26.7568 42.6058L27.5256 44.149C27.7482 44.5942 27.8659 45.0929 27.8659 45.591V47.9032C27.8659 51.8161 31.0405 55 34.9421 55C38.8437 55 42.0183 51.8161 42.0183 47.9032V41.8142C42.0183 40.9245 41.4169 40.1516 40.5568 39.9361ZM18.8598 36.9452C18.7729 36.9432 18.6874 36.9355 18.6005 36.9355H16.9299C16.5748 36.9355 16.2866 36.6464 16.2866 36.2903V35C16.2866 34.6439 16.5748 34.3548 16.9299 34.3548H18.6005C18.6867 34.3548 18.7729 34.3471 18.8598 34.3452V36.9452ZM24.6494 47.2581C25.0045 47.2581 25.2927 47.5471 25.2927 47.9032V50.4839C25.2927 50.84 25.0045 51.129 24.6494 51.129H21.4329V53.4419C21.4329 53.6606 21.1319 53.7839 20.9775 53.6316L18.4828 51.129H16.9299C16.5748 51.129 16.2866 50.84 16.2866 50.4839V47.9032C16.2866 47.5471 16.5748 47.2581 16.9299 47.2581H24.6494ZM20.7896 42.0968H20.5922L19.1537 38.2497C19.705 38.2774 20.2512 38.3464 20.7896 38.4555V42.0968ZM25.2927 38.9058C23.7398 37.9077 21.9746 37.2729 20.1463 37.04V34.251C21.9733 34.0181 23.7411 33.3826 25.2927 32.3852V38.9058ZM34.1804 31.7742C33.9141 31.0252 33.2065 30.4839 32.3689 30.4839C31.6452 30.4839 31.0206 30.8903 30.6906 31.4832C30.5619 30.7587 30.4854 29.9858 30.4564 29.1935H35.568C35.5359 30.0942 35.4362 30.9664 35.2747 31.7742H34.1804ZM34.2988 35.5264V33.0645H38.4455C37.4091 34.3168 35.9585 35.2181 34.2988 35.5264ZM39.3043 31.7742H36.587C36.7362 30.9574 36.8244 30.0852 36.8546 29.1935H40.0576C39.9727 30.1116 39.7108 30.9839 39.3043 31.7742ZM39.3075 25.3226C39.7102 26.1103 39.9727 26.9806 40.0563 27.9032H36.8585C36.8289 26.9877 36.7401 26.1206 36.5954 25.3226H39.3075ZM38.4667 24.0323H36.2969C36.0601 23.1968 35.7584 22.4697 35.4021 21.8768C36.6069 22.3129 37.6645 23.06 38.4667 24.0323ZM33.0122 21.4516C33.7038 21.4516 34.4403 22.4368 34.9479 24.0323H31.0759C31.5841 22.4368 32.3207 21.4516 33.0122 21.4516ZM35.276 25.3226C35.4329 26.1026 35.5384 26.9697 35.5719 27.9032H30.4526C30.486 26.9697 30.5922 26.1026 30.7485 25.3226H35.276ZM30.623 21.8768C30.2673 22.4697 29.9649 23.1968 29.7282 24.0323H27.5584C28.3599 23.06 29.4175 22.3129 30.623 21.8768ZM26.717 25.3226H29.4291C29.2843 26.1206 29.1956 26.9877 29.166 27.9032H25.9682C26.0518 26.9806 26.3142 26.1103 26.717 25.3226ZM26.7131 31.7742C26.3104 30.9826 26.0499 30.111 25.9669 29.1935H29.1705C29.2007 30.0852 29.2888 30.9574 29.4381 31.7742H26.7131ZM27.5577 33.0645H30.439V35.1555C29.2959 34.709 28.3123 33.9819 27.5577 33.0645ZM40.7317 47.9032C40.7317 51.1052 38.1348 53.7097 34.9421 53.7097C31.7494 53.7097 29.1525 51.1052 29.1525 47.9032V45.591C29.1525 44.8935 28.9878 44.1948 28.6771 43.5716L27.9083 42.0284C27.88 41.9742 27.8659 41.9122 27.8659 41.7987C27.8659 41.7045 27.9019 41.6174 27.9662 41.5516C28.0312 41.4877 28.1168 41.4516 28.2551 41.4516C28.8385 41.4516 29.3873 41.68 29.7996 42.0929C30.212 42.5064 30.439 43.0548 30.439 43.6387V44.6774V46.6129H31.7256V44.6774V43.6387V32.4193C31.7256 32.0632 32.0138 31.7742 32.3689 31.7742C32.724 31.7742 33.0122 32.0632 33.0122 32.4193V38.0445V46.6129H34.2988V39.6974L35.5854 40.02V46.6129H36.872V40.3426L38.1586 40.6652V46.6129H39.4452V40.9871L40.2441 41.1877C40.531 41.26 40.7317 41.5174 40.7317 41.8142V47.9032Z" fill="#222222"/>
<path d="M54.5979 26.7729C54.3361 25.1935 53.1081 23.9206 51.541 23.6071C51.3551 23.5697 51.2084 23.4497 51.1177 23.2935C51.7668 22.7613 52.1991 21.9871 52.2808 21.1039L52.7742 20.609C53.3056 20.0761 53.5976 19.3684 53.5976 18.6161C53.5976 16.6226 51.9797 15 49.992 15H48.1978C46.2094 15 44.5915 16.6226 44.5915 18.6161C44.5915 19.3684 44.8836 20.0761 45.4143 20.6084L45.9077 21.1032C45.99 21.9865 46.4217 22.7606 47.0708 23.2929C46.9807 23.449 46.8334 23.569 46.6468 23.6065C45.0804 23.92 43.8524 25.1929 43.5905 26.7723L43.1885 29.1935H55L54.5979 26.7729ZM46.4435 18.6819C46.2686 18.8574 46.1335 19.0626 46.0376 19.2845C45.9366 19.0781 45.8781 18.8529 45.8781 18.6161C45.8781 17.3335 46.9183 16.2903 48.1972 16.2903H49.9913C51.2708 16.2903 52.311 17.3335 52.311 18.6161C52.311 18.8523 52.2525 19.0774 52.1515 19.2839C52.0563 19.0619 51.9212 18.8574 51.7456 18.6813L50.836 17.769L49.9263 18.6813L50.836 19.5935C50.9562 19.7148 51.0244 19.8806 51.0244 20.0503V20.8065C51.0244 21.8735 50.1586 22.7419 49.0946 22.7419C48.0305 22.7419 47.1647 21.8735 47.1647 20.8065V20.0503C47.1647 19.8806 47.2329 19.7142 47.3532 19.5942L47.808 19.1381L48.6397 19.9723L49.5494 19.06L47.808 17.3135L46.4435 18.6819ZM50.1579 24.1729L49.5597 25.0729C49.3525 25.3852 48.8372 25.3852 48.6301 25.0729L48.0318 24.1729C48.1007 24.0858 48.1611 23.9923 48.2145 23.8935C48.4956 23.9748 48.7871 24.0323 49.0946 24.0323C49.4021 24.0323 49.6935 23.9748 49.9752 23.8942C50.028 23.9923 50.0884 24.0858 50.1579 24.1729ZM44.7079 27.9032L44.8604 26.9845C45.0354 25.9303 45.8549 25.0819 46.8996 24.8723C46.9144 24.869 46.9273 24.8632 46.9415 24.86L47.559 25.789C47.9025 26.3045 48.4764 26.6129 49.0946 26.6129C49.7128 26.6129 50.2866 26.3045 50.6301 25.789L51.2477 24.86C51.2618 24.8632 51.2747 24.869 51.2895 24.8723C52.3348 25.0819 53.1537 25.931 53.3294 26.9845L53.4812 27.9032H44.7079Z" fill="#222222"/>
<path d="M54.4172 46.32L51.9598 43.8555L51.1409 44.24L50.8321 43.3871H47.357L47.0489 44.2394L46.23 43.8549L43.7726 46.3194L44.156 47.1407L43.3049 47.451V50.9361L44.1547 51.2452L43.7713 52.0665L46.2287 54.531L47.0476 54.1465L47.357 55H50.8321L51.1402 54.1478L51.9592 54.5323L54.4165 52.0678L54.0331 51.2465L54.8842 50.9361V47.451L54.0344 47.142L54.4172 46.32ZM53.5976 50.0316L53.0682 50.2252L52.7839 50.3555L52.5092 51.0207L52.8701 51.7936L51.6877 52.9794L50.917 52.6174L50.2223 52.9052L49.9302 53.7097H48.2589L48.0659 53.1787L47.936 52.8936L47.2728 52.6181L46.5021 52.98L45.3197 51.7942L45.6806 51.0213L45.3937 50.3245L44.5915 50.0316V48.3555L45.121 48.162L45.4053 48.0316L45.68 47.3665L45.3191 46.5936L46.5015 45.4078L47.2721 45.7697L47.9669 45.482L48.2589 44.6774H49.9302L50.1232 45.2084L50.2531 45.4936L50.9164 45.7691L51.687 45.4071L52.8694 46.5929L52.5085 47.3658L52.7954 48.0626L53.5976 48.3555V50.0316Z" fill="#222222"/>
<path d="M49.0946 45.9677C47.3211 45.9677 45.8782 47.4148 45.8782 49.1935C45.8782 50.9723 47.3211 52.4194 49.0946 52.4194C50.8682 52.4194 52.3111 50.9723 52.3111 49.1935C52.3111 47.4148 50.8682 45.9677 49.0946 45.9677ZM49.0946 51.129C48.0306 51.129 47.1648 50.2606 47.1648 49.1935C47.1648 48.1265 48.0306 47.2581 49.0946 47.2581C50.1586 47.2581 51.0245 48.1265 51.0245 49.1935C51.0245 50.2606 50.1586 51.129 49.0946 51.129Z" fill="#222222"/>
<path d="M17.5732 17.5806H21.433V18.8709H17.5732V17.5806Z" fill="#222222"/>
<path d="M17.5732 20.1613H21.433V21.4516H17.5732V20.1613Z" fill="#222222"/>
<path d="M17.5732 22.7419H21.433V24.0323H17.5732V22.7419Z" fill="#222222"/>
<path d="M22.7195 48.5484H24.0061V49.8387H22.7195V48.5484Z" fill="#222222"/>
<path d="M17.5732 48.5484H18.8598V49.8387H17.5732V48.5484Z" fill="#222222"/>
<path d="M20.1462 48.5484H21.4328V49.8387H20.1462V48.5484Z" fill="#222222"/>
<path d="M18.8598 31.7742H20.1463V26.6129H24.0061V15H15V26.6129H18.8598V31.7742ZM16.2866 25.3226V16.2903H22.7195V25.3226H16.2866Z" fill="#222222"/>
<path d="M48.4513 30.4839H49.7379V34.3548H48.4513V30.4839Z" fill="#222222"/>
<path d="M48.4513 35.6452H49.7379V36.9355H48.4513V35.6452Z" fill="#222222"/>
<path d="M48.4513 38.2258H49.7379V42.0968H48.4513V38.2258Z" fill="#222222"/>
<circle cx="35" cy="35" r="34.5" stroke="black" stroke-opacity="0.2" stroke-dasharray="3 3"/>
</svg>
