<svg width="26" height="14" viewBox="0 0 26 14" fill="none" xmlns="http://www.w3.org/2000/svg">
<path d="M23.8391 2.06339C22.6643 0.732803 21.0075 0 19.1739 0C16.9129 0 15.2109 1.30248 14.0183 2.74741C14.4715 3.44336 14.8245 4.10956 15.082 4.65012C15.9981 3.33052 17.37 1.99728 19.1739 1.99728C21.72 1.99728 23.5679 4.05523 23.5679 6.89062C23.5679 9.72602 21.72 11.784 19.1739 11.784C15.5341 11.784 13.7467 6.62429 13.7296 6.57361L13.7247 6.55928C13.6305 6.29144 11.3606 0 6.3913 0C4.5577 0 2.90095 0.732803 1.7261 2.06339C0.613016 3.32408 0 5.03844 0 6.89062C0 8.74281 0.613016 10.4572 1.7261 11.7179C2.90095 13.0484 4.5577 13.7812 6.3913 13.7812C8.6709 13.7812 10.3642 12.5115 11.5465 11.0874C11.0944 10.3916 10.7443 9.72457 10.4874 9.17527C9.58341 10.4792 8.22166 11.784 6.3913 11.784C3.84522 11.784 1.99728 9.72602 1.99728 6.89062C1.99728 4.05523 3.84522 1.99728 6.3913 1.99728C9.90417 1.99728 11.7794 7.05365 11.8392 7.21823C11.9719 7.6093 14.1485 13.7812 19.1739 13.7812C21.0075 13.7812 22.6643 13.0484 23.8391 11.7179C24.9522 10.4572 25.5652 8.74281 25.5652 6.89062C25.5652 5.03844 24.9522 3.32408 23.8391 2.06339Z" fill="#222222"/>
</svg>
