<svg width="120" height="40" viewBox="0 0 120 40" fill="none" xmlns="http://www.w3.org/2000/svg">
<path d="M5.86256 0.179028C6.94865 0.179028 7.89156 0.358057 8.6912 0.716113C9.50281 1.07417 10.1234 1.58737 10.5531 2.25575C10.9828 2.92414 11.1976 3.7178 11.1976 4.63683C11.1976 5.54389 10.9828 6.3376 10.5531 7.0179C10.1234 7.68629 9.50281 8.19949 8.6912 8.55754C7.89156 8.9156 6.94865 9.09463 5.86256 9.09463H3.03391V12.711H0.706543V0.179028H5.86256ZM5.75514 7.12532C6.76962 7.12532 7.53944 6.91049 8.0646 6.48082C8.58977 6.05115 8.85233 5.43647 8.85233 4.63683C8.85233 3.83719 8.58977 3.22251 8.0646 2.79284C7.53944 2.36317 6.76962 2.14834 5.75514 2.14834H3.03391V7.12532H5.75514ZM21.7212 12.711L19.1611 9.04092C19.0537 9.05284 18.8926 9.05882 18.6777 9.05882H15.8491V12.711H13.5217V0.179028H18.6777C19.7638 0.179028 20.7068 0.358057 21.5064 0.716113C22.318 1.07417 22.9386 1.58737 23.3683 2.25575C23.798 2.92414 24.0128 3.7178 24.0128 4.63683C24.0128 5.57969 23.7801 6.3913 23.3146 7.07161C22.861 7.75192 22.2046 8.25918 21.3453 8.59335L24.2276 12.711H21.7212ZM21.6675 4.63683C21.6675 3.83719 21.405 3.22251 20.8798 2.79284C20.3546 2.36317 19.5848 2.14834 18.5703 2.14834H15.8491V7.14322H18.5703C19.5848 7.14322 20.3546 6.92839 20.8798 6.49872C21.405 6.05714 21.6675 5.43647 21.6675 4.63683ZM32.4709 12.89C31.1938 12.89 30.0421 12.6155 29.0157 12.0665C27.9892 11.5055 27.1836 10.7357 26.5988 9.75703C26.014 8.76639 25.7215 7.6624 25.7215 6.44501C25.7215 5.22762 26.014 4.12957 26.5988 3.1509C27.1836 2.16026 27.9892 1.39043 29.0157 0.841432C30.0421 0.280476 31.1938 0 32.4709 0C33.748 0 34.8997 0.280476 35.9261 0.841432C36.9526 1.39043 37.7582 2.15432 38.343 3.13299C38.9278 4.11166 39.2203 5.2157 39.2203 6.44501C39.2203 7.67432 38.9278 8.77836 38.343 9.75703C37.7582 10.7357 36.9526 11.5055 35.9261 12.0665C34.8997 12.6155 33.748 12.89 32.4709 12.89ZM32.4709 10.8491C33.3063 10.8491 34.0583 10.6641 34.7267 10.2941C35.395 9.91217 35.9202 9.38706 36.3021 8.71867C36.684 8.03836 36.875 7.28046 36.875 6.44501C36.875 5.60957 36.684 4.85765 36.3021 4.18926C35.9202 3.50895 35.395 2.98379 34.7267 2.61381C34.0583 2.23187 33.3063 2.04092 32.4709 2.04092C31.6354 2.04092 30.8835 2.23187 30.2151 2.61381C29.5468 2.98379 29.0216 3.50895 28.6397 4.18926C28.2577 4.85765 28.0668 5.60957 28.0668 6.44501C28.0668 7.28046 28.2577 8.03836 28.6397 8.71867C29.0216 9.38706 29.5468 9.91217 30.2151 10.2941C30.8835 10.6641 31.6354 10.8491 32.4709 10.8491ZM44.4263 12.8363C43.6505 12.8363 42.8926 12.7349 42.1527 12.532C41.4127 12.3291 40.8219 12.0725 40.3803 11.7621L41.2396 10.0614C41.6693 10.3478 42.1825 10.5806 42.7793 10.7596C43.388 10.9267 43.9847 11.0102 44.5696 11.0102C45.9063 11.0102 46.5747 10.6582 46.5747 9.95396C46.5747 9.6198 46.4016 9.38706 46.0555 9.25575C45.7213 9.12445 45.1783 8.99913 44.4263 8.8798C43.6386 8.76046 42.9941 8.62317 42.4928 8.46803C42.0035 8.31289 41.5738 8.04435 41.2038 7.6624C40.8458 7.26854 40.6668 6.72547 40.6668 6.03325C40.6668 5.12619 41.0427 4.40409 41.7946 3.86701C42.5585 3.318 43.5849 3.04348 44.8739 3.04348C45.5303 3.04348 46.1868 3.12107 46.8432 3.27622C47.4996 3.41944 48.0367 3.61637 48.4545 3.86701L47.5951 5.56777C46.7835 5.09038 45.8705 4.85166 44.856 4.85166C44.1995 4.85166 43.6983 4.95309 43.3522 5.15601C43.018 5.34696 42.8509 5.60358 42.8509 5.92583C42.8509 6.28389 43.0299 6.54051 43.388 6.69565C43.758 6.83887 44.3249 6.97611 45.0887 7.10742C45.8526 7.22675 46.4792 7.36404 46.9685 7.51918C47.4579 7.67432 47.8756 7.93693 48.2217 8.3069C48.5798 8.67688 48.7588 9.20205 48.7588 9.88235C48.7588 10.7775 48.3709 11.4936 47.5951 12.0307C46.8193 12.5678 45.7631 12.8363 44.4263 12.8363ZM56.4327 12.1918C56.1703 12.4066 55.848 12.5678 55.4659 12.6752C55.0961 12.7826 54.7023 12.8363 54.2843 12.8363C53.2342 12.8363 52.4225 12.5618 51.8496 12.0128C51.2767 11.4638 50.9902 10.6641 50.9902 9.61381V5.01279H49.4149V3.22251H50.9902V1.03836H53.2281V3.22251H55.7882V5.01279H53.2281V9.5601C53.2281 10.0256 53.3416 10.3836 53.5682 10.6343C53.7953 10.873 54.1232 10.9923 54.5529 10.9923C55.0542 10.9923 55.4721 10.861 55.8061 10.5985L56.4327 12.1918ZM62.2557 12.8363C61.289 12.8363 60.4179 12.6275 59.6419 12.2097C58.8659 11.792 58.2572 11.2131 57.8158 10.4731C57.3861 9.72123 57.1713 8.87381 57.1713 7.93095C57.1713 6.98808 57.3861 6.14665 57.8158 5.40665C58.2572 4.66665 58.8659 4.08783 59.6419 3.67008C60.4179 3.25233 61.289 3.04348 62.2557 3.04348C63.2342 3.04348 64.1115 3.25233 64.8874 3.67008C65.6634 4.08783 66.2659 4.66665 66.6956 5.40665C67.137 6.14665 67.358 6.98808 67.358 7.93095C67.358 8.87381 67.137 9.72123 66.6956 10.4731C66.2659 11.2131 65.6634 11.792 64.8874 12.2097C64.1115 12.6275 63.2342 12.8363 62.2557 12.8363ZM62.2557 10.9207C63.0792 10.9207 63.7595 10.6462 64.2966 10.0972C64.8337 9.54818 65.1022 8.82609 65.1022 7.93095C65.1022 7.03581 64.8337 6.31371 64.2966 5.76471C63.7595 5.2157 63.0792 4.94118 62.2557 4.94118C61.4322 4.94118 60.7519 5.2157 60.2148 5.76471C59.6895 6.31371 59.4271 7.03581 59.4271 7.93095C59.4271 8.82609 59.6895 9.54818 60.2148 10.0972C60.7519 10.6462 61.4322 10.9207 62.2557 10.9207Z" fill="#222222"/>
<path d="M85.3944 40C84.1294 40 82.9836 39.7255 81.957 39.1765C80.9427 38.6155 80.1427 37.8457 79.5581 36.867C78.9852 35.8883 78.6987 34.7843 78.6987 33.555C78.6987 32.3257 78.9913 31.2216 79.576 30.243C80.1606 29.2643 80.9606 28.5004 81.9749 27.9514C83.0015 27.3904 84.1473 27.11 85.4123 27.11C86.4389 27.11 87.3755 27.289 88.223 27.6471C89.0706 28.0051 89.7867 28.5243 90.3714 29.2046L88.8675 30.6189C87.9606 29.6403 86.8445 29.1509 85.5197 29.1509C84.6604 29.1509 83.8905 29.3419 83.2102 29.7238C82.5299 30.0938 81.999 30.613 81.6169 31.2813C81.2348 31.9497 81.044 32.7076 81.044 33.555C81.044 34.4024 81.2348 35.1603 81.6169 35.8287C81.999 36.497 82.5299 37.0222 83.2102 37.4041C83.8905 37.7741 84.6604 37.9591 85.5197 37.9591C86.8445 37.9591 87.9606 37.4638 88.8675 36.4732L90.3714 37.9054C89.7867 38.5857 89.0645 39.1049 88.2051 39.4629C87.3576 39.821 86.421 40 85.3944 40ZM100.801 39.821L98.2409 36.1509C98.1335 36.1628 97.9724 36.1688 97.7576 36.1688H94.9289V39.821H92.6015V27.289H97.7576C98.8435 27.289 99.7862 27.468 100.586 27.8261C101.397 28.1842 102.018 28.6973 102.448 29.3657C102.878 30.0341 103.093 30.8278 103.093 31.7468C103.093 32.6897 102.86 33.5013 102.394 34.1816C101.941 34.8619 101.284 35.3692 100.425 35.7033L103.307 39.821H100.801ZM100.747 31.7468C100.747 30.9472 100.484 30.3325 99.9596 29.9028C99.4343 29.4732 98.6645 29.2583 97.6501 29.2583H94.9289V34.2532H97.6501C98.6645 34.2532 99.4343 34.0384 99.9596 33.6087C100.484 33.1671 100.747 32.5465 100.747 31.7468ZM117.208 39.821L117.19 31.5141L113.072 38.3888H112.034L107.916 31.6215V39.821H105.696V27.289H107.612L112.589 35.5959L117.476 27.289H119.392L119.41 39.821H117.208Z" fill="#222222"/>
<path d="M77.7723 9.64194H118.482" stroke="#FFE200" stroke-width="1.5" stroke-linecap="round"/>
<path d="M1 33L67.65 33" stroke="#FFE200" stroke-width="1.5" stroke-linecap="round"/>
</svg>
