<svg width="313" height="54" viewBox="0 0 313 54" fill="none" xmlns="http://www.w3.org/2000/svg">
<path d="M3.88947 2.77288C4.00823 1.20863 5.3121 0 6.88086 0H119.764C121.51 0 122.887 1.48579 122.755 3.22712L119.111 51.2271C118.992 52.7914 117.688 54 116.119 54H3.23642C1.49007 54 0.11281 52.5142 0.245022 50.7729L3.88947 2.77288Z" fill="#FEFEFE"/>
<path d="M25.2304 21.672C26.2971 21.672 27.2571 21.9227 28.1104 22.424C28.9638 22.9147 29.6358 23.5973 30.1264 24.472C30.6171 25.336 30.8624 26.312 30.8624 27.4C30.8624 28.488 30.6171 29.4693 30.1264 30.344C29.6358 31.208 28.9638 31.8907 28.1104 32.392C27.2571 32.8827 26.2971 33.128 25.2304 33.128C24.3131 33.128 23.4811 32.9787 22.7344 32.68C21.9878 32.3813 21.3638 31.944 20.8624 31.368L21.8704 30.36C22.7131 31.2453 23.8064 31.688 25.1504 31.688C25.8651 31.688 26.5158 31.5333 27.1024 31.224C27.6891 30.904 28.1691 30.4613 28.5424 29.896C28.9158 29.3307 29.1398 28.6853 29.2144 27.96H23.7904V26.648H29.1984C29.0918 25.9547 28.8518 25.3413 28.4784 24.808C28.1051 24.2747 27.6304 23.8587 27.0544 23.56C26.4784 23.2613 25.8438 23.112 25.1504 23.112C23.8171 23.112 22.7238 23.5547 21.8704 24.44L20.8624 23.432C21.3638 22.856 21.9878 22.4187 22.7344 22.12C23.4918 21.8213 24.3238 21.672 25.2304 21.672ZM36.4949 29.416H34.7349V33H33.1989V24.52H34.7349V28.104H36.5269L39.2789 24.52H40.9269L37.7109 28.6L41.1509 33H39.3429L36.4949 29.416ZM46.1762 33.096C45.3122 33.096 44.5389 32.9093 43.8562 32.536C43.1842 32.1627 42.6562 31.6507 42.2722 31C41.8882 30.3387 41.6962 29.592 41.6962 28.76C41.6962 27.928 41.8882 27.1867 42.2722 26.536C42.6562 25.8747 43.1842 25.3627 43.8562 25C44.5389 24.6267 45.3122 24.44 46.1762 24.44C46.9442 24.44 47.6269 24.5947 48.2242 24.904C48.8322 25.2133 49.3015 25.6613 49.6322 26.248L48.4642 27C48.1975 26.5947 47.8669 26.2907 47.4722 26.088C47.0775 25.8853 46.6402 25.784 46.1602 25.784C45.6055 25.784 45.1042 25.9067 44.6562 26.152C44.2189 26.3973 43.8722 26.7493 43.6162 27.208C43.3709 27.656 43.2482 28.1733 43.2482 28.76C43.2482 29.3573 43.3709 29.8853 43.6162 30.344C43.8722 30.792 44.2189 31.1387 44.6562 31.384C45.1042 31.6293 45.6055 31.752 46.1602 31.752C46.6402 31.752 47.0775 31.6507 47.4722 31.448C47.8669 31.2453 48.1975 30.9413 48.4642 30.536L49.6322 31.272C49.3015 31.8587 48.8322 32.312 48.2242 32.632C47.6269 32.9413 46.9442 33.096 46.1762 33.096ZM59.4768 24.52V33H57.9408V25.864H53.1568V33H51.6208V24.52H59.4768ZM70.1129 28.808C70.1129 28.9253 70.1023 29.08 70.0809 29.272H63.2009C63.2969 30.0187 63.6223 30.6213 64.1769 31.08C64.7423 31.528 65.4409 31.752 66.2729 31.752C67.2863 31.752 68.1023 31.4107 68.7209 30.728L69.5689 31.72C69.1849 32.168 68.7049 32.5093 68.1289 32.744C67.5636 32.9787 66.9289 33.096 66.2249 33.096C65.3289 33.096 64.5343 32.9147 63.8409 32.552C63.1476 32.1787 62.6089 31.6613 62.2249 31C61.8516 30.3387 61.6649 29.592 61.6649 28.76C61.6649 27.9387 61.8463 27.1973 62.2089 26.536C62.5823 25.8747 63.0889 25.3627 63.7289 25C64.3796 24.6267 65.1103 24.44 65.9209 24.44C66.7316 24.44 67.4516 24.6267 68.0809 25C68.7209 25.3627 69.2169 25.8747 69.5689 26.536C69.9316 27.1973 70.1129 27.9547 70.1129 28.808ZM65.9209 25.736C65.1849 25.736 64.5663 25.96 64.0649 26.408C63.5743 26.856 63.2863 27.4427 63.2009 28.168H68.6409C68.5556 27.4533 68.2623 26.872 67.7609 26.424C67.2703 25.9653 66.6569 25.736 65.9209 25.736ZM76.9918 24.44C77.8131 24.44 78.5491 24.6213 79.1998 24.984C79.8505 25.3467 80.3571 25.8533 80.7198 26.504C81.0931 27.1547 81.2798 27.9067 81.2798 28.76C81.2798 29.6133 81.0931 30.3707 80.7198 31.032C80.3571 31.6827 79.8505 32.1893 79.1998 32.552C78.5491 32.9147 77.8131 33.096 76.9918 33.096C76.3838 33.096 75.8238 32.9787 75.3118 32.744C74.8105 32.5093 74.3838 32.168 74.0318 31.72V36.104H72.4958V24.52H73.9678V25.864C74.3091 25.3947 74.7411 25.0427 75.2638 24.808C75.7865 24.5627 76.3625 24.44 76.9918 24.44ZM76.8638 31.752C77.4078 31.752 77.8931 31.6293 78.3198 31.384C78.7571 31.128 79.0985 30.776 79.3438 30.328C79.5998 29.8693 79.7278 29.3467 79.7278 28.76C79.7278 28.1733 79.5998 27.656 79.3438 27.208C79.0985 26.7493 78.7571 26.3973 78.3198 26.152C77.8931 25.9067 77.4078 25.784 76.8638 25.784C76.3305 25.784 75.8451 25.912 75.4078 26.168C74.9811 26.4133 74.6398 26.76 74.3838 27.208C74.1385 27.656 74.0158 28.1733 74.0158 28.76C74.0158 29.3467 74.1385 29.8693 74.3838 30.328C74.6291 30.776 74.9705 31.128 75.4078 31.384C75.8451 31.6293 76.3305 31.752 76.8638 31.752ZM89.5189 25.864H86.4149V33H84.8789V25.864H81.7749V24.52H89.5189V25.864Z" fill="#222222"/>
<path d="M116.437 2.62699C116.626 1.1261 117.902 0 119.414 0H309.601C311.405 0 312.802 1.58215 312.577 3.37301L306.563 51.373C306.374 52.8739 305.098 54 303.586 54H113.399C111.595 54 110.198 52.4178 110.423 50.627L116.437 2.62699Z" fill="#FFE200"/>
<path d="M149.368 30.2H143.416L142.184 33H140.536L145.608 21.8H147.192L152.28 33H150.6L149.368 30.2ZM148.808 28.92L146.392 23.432L143.976 28.92H148.808ZM153.957 24.52H155.493V28.12H160.325V24.52H161.861V33H160.325V29.448H155.493V33H153.957V24.52ZM173.471 31.656V34.968H172.031V33H164.943V34.968H163.487V31.656H163.935C164.479 31.624 164.853 31.24 165.055 30.504C165.258 29.768 165.397 28.728 165.471 27.384L165.599 24.52H172.175V31.656H173.471ZM166.879 27.496C166.837 28.5627 166.746 29.448 166.607 30.152C166.479 30.8453 166.239 31.3467 165.887 31.656H170.639V25.864H166.959L166.879 27.496ZM179.968 24.44C180.79 24.44 181.526 24.6213 182.176 24.984C182.827 25.3467 183.334 25.8533 183.696 26.504C184.07 27.1547 184.256 27.9067 184.256 28.76C184.256 29.6133 184.07 30.3707 183.696 31.032C183.334 31.6827 182.827 32.1893 182.176 32.552C181.526 32.9147 180.79 33.096 179.968 33.096C179.36 33.096 178.8 32.9787 178.288 32.744C177.787 32.5093 177.36 32.168 177.008 31.72V36.104H175.472V24.52H176.944V25.864C177.286 25.3947 177.718 25.0427 178.24 24.808C178.763 24.5627 179.339 24.44 179.968 24.44ZM179.84 31.752C180.384 31.752 180.87 31.6293 181.296 31.384C181.734 31.128 182.075 30.776 182.32 30.328C182.576 29.8693 182.704 29.3467 182.704 28.76C182.704 28.1733 182.576 27.656 182.32 27.208C182.075 26.7493 181.734 26.3973 181.296 26.152C180.87 25.9067 180.384 25.784 179.84 25.784C179.307 25.784 178.822 25.912 178.384 26.168C177.958 26.4133 177.616 26.76 177.36 27.208C177.115 27.656 176.992 28.1733 176.992 28.76C176.992 29.3467 177.115 29.8693 177.36 30.328C177.606 30.776 177.947 31.128 178.384 31.384C178.822 31.6293 179.307 31.752 179.84 31.752ZM194.152 28.808C194.152 28.9253 194.141 29.08 194.12 29.272H187.24C187.336 30.0187 187.661 30.6213 188.216 31.08C188.781 31.528 189.48 31.752 190.312 31.752C191.325 31.752 192.141 31.4107 192.76 30.728L193.608 31.72C193.224 32.168 192.744 32.5093 192.168 32.744C191.603 32.9787 190.968 33.096 190.264 33.096C189.368 33.096 188.573 32.9147 187.88 32.552C187.187 32.1787 186.648 31.6613 186.264 31C185.891 30.3387 185.704 29.592 185.704 28.76C185.704 27.9387 185.885 27.1973 186.248 26.536C186.621 25.8747 187.128 25.3627 187.768 25C188.419 24.6267 189.149 24.44 189.96 24.44C190.771 24.44 191.491 24.6267 192.12 25C192.76 25.3627 193.256 25.8747 193.608 26.536C193.971 27.1973 194.152 27.9547 194.152 28.808ZM189.96 25.736C189.224 25.736 188.605 25.96 188.104 26.408C187.613 26.856 187.325 27.4427 187.24 28.168H192.68C192.595 27.4533 192.301 26.872 191.8 26.424C191.309 25.9653 190.696 25.736 189.96 25.736ZM196.535 24.52H198.071V30.696L203.271 24.52H204.663V33H203.127V26.824L197.943 33H196.535V24.52ZM200.503 23.416C199.714 23.416 199.1 23.2293 198.663 22.856C198.226 22.472 198.002 21.9227 197.991 21.208H199.031C199.042 21.6027 199.175 21.9227 199.431 22.168C199.698 22.4027 200.05 22.52 200.487 22.52C200.924 22.52 201.276 22.4027 201.543 22.168C201.81 21.9227 201.948 21.6027 201.959 21.208H203.031C203.02 21.9227 202.791 22.472 202.343 22.856C201.895 23.2293 201.282 23.416 200.503 23.416ZM221.349 21.8V33H219.781V23.192H214.821L214.709 26.472C214.656 28.0187 214.528 29.272 214.325 30.232C214.133 31.192 213.824 31.9173 213.397 32.408C212.97 32.888 212.394 33.128 211.669 33.128C211.338 33.128 211.002 33.0853 210.661 33L210.773 31.576C210.944 31.6187 211.114 31.64 211.285 31.64C211.744 31.64 212.112 31.4587 212.389 31.096C212.666 30.7227 212.874 30.168 213.013 29.432C213.152 28.696 213.242 27.7253 213.285 26.52L213.461 21.8H221.349ZM227.606 24.44C228.779 24.44 229.675 24.728 230.294 25.304C230.923 25.88 231.238 26.7387 231.238 27.88V33H229.782V31.88C229.526 32.2747 229.158 32.5787 228.678 32.792C228.208 32.9947 227.648 33.096 226.998 33.096C226.048 33.096 225.286 32.8667 224.71 32.408C224.144 31.9493 223.862 31.3467 223.862 30.6C223.862 29.8533 224.134 29.256 224.678 28.808C225.222 28.3493 226.086 28.12 227.27 28.12H229.702V27.816C229.702 27.1547 229.51 26.648 229.126 26.296C228.742 25.944 228.176 25.768 227.43 25.768C226.928 25.768 226.438 25.8533 225.958 26.024C225.478 26.184 225.072 26.4027 224.742 26.68L224.102 25.528C224.539 25.176 225.062 24.9093 225.67 24.728C226.278 24.536 226.923 24.44 227.606 24.44ZM227.254 31.912C227.84 31.912 228.347 31.784 228.774 31.528C229.2 31.2613 229.51 30.888 229.702 30.408V29.224H227.334C226.032 29.224 225.382 29.6613 225.382 30.536C225.382 30.9627 225.547 31.2987 225.878 31.544C226.208 31.7893 226.667 31.912 227.254 31.912ZM241.86 24.52V33H240.324V25.864H235.54V33H234.004V24.52H241.86ZM252.4 24.52L248.288 33.848C247.925 34.712 247.498 35.32 247.008 35.672C246.528 36.024 245.946 36.2 245.264 36.2C244.848 36.2 244.442 36.1307 244.048 35.992C243.664 35.864 243.344 35.672 243.088 35.416L243.744 34.264C244.181 34.68 244.688 34.888 245.264 34.888C245.637 34.888 245.946 34.7867 246.192 34.584C246.448 34.392 246.677 34.056 246.88 33.576L247.152 32.984L243.408 24.52H245.008L247.968 31.304L250.896 24.52H252.4ZM258.784 33L256.336 29.752L253.856 33H252.144L255.488 28.664L252.304 24.52H254.016L256.352 27.576L258.672 24.52H260.352L257.152 28.664L260.528 33H258.784ZM262.144 24.52H263.68V30.696L268.88 24.52H270.272V33H268.736V26.824L263.552 33H262.144V24.52ZM273.254 24.52H274.79V28.12H279.622V24.52H281.158V33H279.622V29.448H274.79V33H273.254V24.52Z" fill="#222222"/>
</svg>
