<svg width="20" height="20" viewBox="0 0 20 20" fill="none" xmlns="http://www.w3.org/2000/svg">
<path d="M15.2055 13.2304C14.5521 12.5853 13.7363 12.5853 13.0871 13.2304C12.5918 13.7215 12.0965 14.2126 11.6096 14.712C11.4764 14.8493 11.3641 14.8785 11.2017 14.7869C10.8813 14.6121 10.54 14.4706 10.232 14.2792C8.79615 13.3761 7.59335 12.2149 6.5279 10.9081C5.99934 10.2589 5.52904 9.56385 5.20025 8.78143C5.13366 8.62328 5.14614 8.51924 5.27516 8.39022C5.77043 7.91161 6.25321 7.42052 6.74016 6.92943C7.41855 6.24689 7.41855 5.44782 6.736 4.76112C6.34894 4.36991 5.96188 3.98703 5.57482 3.59582C5.17528 3.19628 4.77989 2.79259 4.37619 2.39721C3.72277 1.76046 2.90703 1.76046 2.25777 2.40138C1.75834 2.89247 1.27972 3.39605 0.771964 3.87882C0.301667 4.32413 0.0644375 4.86933 0.0144944 5.50609C-0.0645821 6.54238 0.189295 7.5204 0.54722 8.47346C1.27972 10.4462 2.39511 12.1983 3.74774 13.8047C5.57482 15.9772 7.75567 17.696 10.3069 18.9362C11.4556 19.4939 12.6459 19.9226 13.9403 19.9933C14.8309 20.0433 15.605 19.8185 16.2252 19.1235C16.6497 18.6491 17.1283 18.2163 17.5778 17.7626C18.2437 17.0884 18.2479 16.2727 17.5861 15.6068C16.7954 14.8119 16.0004 14.0211 15.2055 13.2304Z" fill="#222222"/>
<path d="M14.4107 9.91342L15.9464 9.65123C15.705 8.24038 15.0391 6.9627 14.0278 5.94722C12.9582 4.87763 11.6055 4.20342 10.1156 3.99533L9.89917 5.53936C11.052 5.70167 12.1008 6.2219 12.929 7.0501C13.7115 7.83252 14.2234 8.82303 14.4107 9.91342Z" fill="#222222"/>
<path d="M16.8121 3.23789C15.0391 1.46496 12.7958 0.34543 10.3194 0L10.103 1.54403C12.2423 1.84368 14.1817 2.81338 15.7133 4.34077C17.1658 5.79324 18.1189 7.62859 18.4643 9.64707L20.0001 9.38488C19.5964 7.04594 18.4935 4.92342 16.8121 3.23789Z" fill="#222222"/>
</svg>
