<svg width="101" height="115" viewBox="0 0 101 115" fill="none" xmlns="http://www.w3.org/2000/svg">
<path d="M97.9389 20.5939L51.8939 0.37898C50.7378 -0.128638 49.4216 -0.126167 48.2673 0.385494L2.67151 20.6004C1.04736 21.3205 0 22.9303 0 24.7071V60.1955C0 73.6074 5.30012 87.3176 14.5415 97.8105C19.1898 103.088 24.5485 107.265 30.469 110.224C36.8106 113.393 43.4869 115 50.3126 115C59.8702 115 69.1724 111.907 77.2139 106.054C79.2199 104.594 79.6626 101.785 78.2026 99.7787C76.7427 97.7727 73.933 97.3302 71.927 98.79C65.4318 103.517 57.9576 106.016 50.3126 106.016C28.6829 106.016 8.98439 84.1762 8.98439 60.1955V27.6293L50.097 9.40223L91.6408 27.641V60.1955C91.6408 68.4677 89.2644 76.8391 84.7684 84.4044C83.501 86.5373 84.2024 89.2937 86.3353 90.5612C88.4684 91.8286 91.2246 91.1272 92.4921 88.9943C97.8129 80.0407 100.625 70.0824 100.625 60.1955V24.7071C100.625 22.9246 99.5711 21.3106 97.9389 20.5939Z" fill="#FFE200"/>
<path d="M71.7372 35.3771L43.8842 70.1799L28.2705 55.1614C26.4824 53.4415 23.6386 53.4966 21.9187 55.2847C20.1989 57.0728 20.2539 59.9166 22.0421 61.6364L37.8737 76.8645C37.88 76.8706 37.8865 76.8766 37.8928 76.8829C39.5322 78.4415 41.6541 79.2878 43.902 79.2878C44.0226 79.2878 44.1432 79.2854 44.2641 79.2804C46.6451 79.1847 48.8319 78.154 50.4217 76.3787C50.477 76.3169 50.5304 76.2536 50.5823 76.1889L78.7518 40.9907C80.302 39.0537 79.9882 36.2268 78.0514 34.6765C76.1142 33.1262 73.2875 33.4398 71.7372 35.3771Z" fill="#FFE200"/>
</svg>
