<svg width="40" height="20" fill="none" xmlns="http://www.w3.org/2000/svg"><path d="M39.789 10.549l-8.564 9.225a.681.681 0 01-1.015-.002.82.82 0 01.001-1.096L38.266 10 30.21 1.324a.82.82 0 01-.002-1.096.69.69 0 01.509-.228.69.69 0 01.507.226l8.564 9.225A.806.806 0 0140 10a.808.808 0 01-.211.549z" fill="#222"/><path d="M24.789 10.549l-8.564 9.225a.681.681 0 01-1.015-.002.82.82 0 01.001-1.096L23.266 10 15.21 1.324a.82.82 0 01-.002-1.096.69.69 0 01.509-.228.69.69 0 01.507.226l8.564 9.225A.806.806 0 0125 10a.808.808 0 01-.211.549z" fill="#222" fill-opacity=".6"/><path d="M9.789 10.549l-8.564 9.225a.68.68 0 01-1.015-.002.82.82 0 01.001-1.096L8.266 10 .21 1.324A.82.82 0 01.209.228.69.69 0 01.718 0a.69.69 0 01.507.226l8.564 9.225A.807.807 0 0110 10a.808.808 0 01-.211.549z" fill="#222" fill-opacity=".3"/></svg>