<svg width="70" height="70" fill="none" xmlns="http://www.w3.org/2000/svg"><path d="M33.71 50.861l-.835-.834-.912.913 1.747 1.746 4.327-4.327-.913-.912-3.414 3.414zm4.327-32.179l-.913-.912-3.414 3.415-.835-.835-.912.912 1.747 1.747 4.327-4.327zm11.157 14.382a3.23 3.23 0 003.225-3.226 3.23 3.23 0 00-3.225-3.225 3.23 3.23 0 00-3.226 3.226 3.23 3.23 0 003.226 3.225zm0-5.161c1.067 0 1.935.868 1.935 1.936a1.938 1.938 0 01-1.935 1.935 1.938 1.938 0 01-1.936-1.936c0-1.067.868-1.935 1.936-1.935z" fill="#222"/><path d="M52.205 36.095l2.015-3.455c.51-.875.78-1.872.78-2.884a5.73 5.73 0 00-5.724-5.724h-.165a5.73 5.73 0 00-5.724 5.724c0 1.012.27 2.009.78 2.884l1 1.715h-6.296a1.938 1.938 0 00-1.936 1.935v8.767a5.139 5.139 0 00-1.29-.336V25.278a5.166 5.166 0 004.516-5.117A5.167 5.167 0 0035 15a5.167 5.167 0 00-5.161 5.161c0 1.626.757 3.076 1.935 4.023v16.622c0 .356-.29.645-.645.645h-.645v-1.115a3.236 3.236 0 00-2.587-3.161l-2.284-.458a1.29 1.29 0 01-.755-.593c.354-.31.645-.688.836-1.124h.274a1.938 1.938 0 001.935-1.936c0-.534-.218-1.018-.569-1.37a3.207 3.207 0 001.214-2.5 3.23 3.23 0 00-3.225-3.226c-.746 0-1.424.264-1.971.69a3.576 3.576 0 00-.538-.045h-2.291a3.591 3.591 0 00-3.587 3.587c0 .801.277 1.582.767 2.21a1.902 1.902 0 00-.122.654c0 1.067.868 1.936 1.935 1.936h.274c.191.437.483.815.837 1.125a1.24 1.24 0 01-.706.579l-2.334.47A3.237 3.237 0 0015 40.337v3.696h15.484v-1.29h.645a1.938 1.938 0 001.936-1.936V24.943c.407.165.84.278 1.29.335v19.444a5.166 5.166 0 00-4.516 5.117A5.167 5.167 0 0035 55a5.167 5.167 0 005.161-5.161 5.15 5.15 0 00-1.935-4.023V36.29c0-.356.29-.645.645-.645h7.049l.263.45c-1.744.564-2.796 1.586-2.796 2.776 0 1.839 2.496 3.225 5.806 3.225S55 40.71 55 38.871c0-1.19-1.052-2.212-2.795-2.776zM20.807 33.71v-1.29c0-.313.225-.576.521-.633a6.81 6.81 0 002.857.633h.492v1.29a1.938 1.938 0 01-1.935 1.936 1.938 1.938 0 01-1.936-1.936zm5.16 0v-1.29a.646.646 0 010 1.29zm-7.096-.645c0-.355.29-.645.645-.645v1.29a.646.646 0 01-.645-.645zm1.148-1.935h-.503c-.346 0-.666.098-.948.258a2.308 2.308 0 01-.342-1.187 2.3 2.3 0 012.297-2.297h1.847a3.194 3.194 0 00-.273 1.29h1.29c0-1.067.869-1.935 1.936-1.935s1.935.868 1.935 1.935a1.938 1.938 0 01-1.935 1.936h-1.139a5.49 5.49 0 01-2.444-.578l-.136-.067h-.152c-.57 0-1.078.252-1.433.645zm2.723 5.806c.349 0 .679-.07.994-.173.08.136.172.264.275.383a1.29 1.29 0 01-1.27 1.08 1.288 1.288 0 01-1.267-1.076 2.58 2.58 0 00.275-.387c.314.103.644.173.993.173zm6.451 5.806H16.29v-2.405a1.94 1.94 0 011.553-1.896l2.383-.484c.044-.013.086-.031.13-.047a2.58 2.58 0 002.386 1.607c1.077 0 2-.664 2.386-1.611.06.022.118.046.18.064l2.333.47c.9.182 1.553.98 1.553 1.897v2.406zm1.936-22.58A3.875 3.875 0 0135 16.291a3.875 3.875 0 013.871 3.87A3.875 3.875 0 0135 24.032a3.875 3.875 0 01-3.871-3.87zm7.742 29.677A3.875 3.875 0 0135 53.71a3.875 3.875 0 01-3.871-3.87A3.875 3.875 0 0135 45.966a3.875 3.875 0 013.871 3.871zm10.24-24.516h.165a4.439 4.439 0 014.434 4.434 4.44 4.44 0 01-.604 2.233l-3.5 5.998c-.17.294-.655.294-.825 0l-3.5-5.998a4.44 4.44 0 01-.604-2.233 4.439 4.439 0 014.434-4.434zm.083 15.484c-2.585 0-4.517-1.022-4.517-1.935 0-.615.893-1.266 2.175-1.628l.815 1.395c.315.542.9.878 1.526.878.627 0 1.212-.336 1.528-.878l.815-1.395c1.28.362 2.174 1.013 2.174 1.628 0 .913-1.932 1.935-4.517 1.935z" fill="#222"/><path d="M17.58 45.322h9.033v1.29H17.58v-1.29zm0 2.581h9.033v1.29H17.58v-1.29zm2.581 2.58h1.29v1.29h-1.29v-1.29zm-2.581 0h1.291v1.29h-1.29v-1.29zm5.162 0h1.29v1.29h-1.29v-1.29zm2.581 0h1.29v1.29h-1.29v-1.29z" fill="#222"/><circle cx="35" cy="35" r="34.5" stroke="#000" stroke-opacity=".2" stroke-dasharray="3 3"/></svg>