<svg width="313" height="54" fill="none" xmlns="http://www.w3.org/2000/svg"><path d="M3.89 2.773A3 3 0 016.88 0h112.884a3 3 0 012.991 3.227l-3.644 48A3 3 0 01116.119 54H3.236a3 3 0 01-2.991-3.227l3.644-48z" fill="#FEFEFE"/><path d="M25.23 21.672c1.067 0 2.027.25 2.88.752a5.313 5.313 0 012.016 2.048c.491.864.736 1.84.736 2.928 0 1.088-.245 2.07-.736 2.944a5.462 5.462 0 01-2.016 2.048c-.853.49-1.813.736-2.88.736-.917 0-1.749-.15-2.496-.448a4.804 4.804 0 01-1.872-1.312l1.008-1.008c.843.885 1.936 1.328 3.28 1.328a4.12 4.12 0 001.952-.464 3.997 3.997 0 001.44-1.328c.374-.565.598-1.21.672-1.936H23.79v-1.312h5.408a4.298 4.298 0 00-.72-1.84 3.913 3.913 0 00-1.424-1.248 4.073 4.073 0 00-1.904-.448c-1.333 0-2.426.443-3.28 1.328l-1.008-1.008a4.804 4.804 0 011.872-1.312c.758-.299 1.59-.448 2.496-.448zm11.265 7.744h-1.76V33h-1.536v-8.48h1.536v3.584h1.792l2.752-3.584h1.648L37.71 28.6l3.44 4.4h-1.808l-2.848-3.584zm9.681 3.68c-.864 0-1.637-.187-2.32-.56A4.136 4.136 0 0142.272 31c-.384-.661-.576-1.408-.576-2.24 0-.832.192-1.573.576-2.224A3.99 3.99 0 0143.856 25c.683-.373 1.456-.56 2.32-.56.768 0 1.45.155 2.048.464.608.31 1.078.757 1.408 1.344L48.464 27a2.61 2.61 0 00-.992-.912 2.83 2.83 0 00-1.312-.304 3.08 3.08 0 00-1.504.368 2.677 2.677 0 00-1.04 1.056c-.245.448-.368.965-.368 1.552 0 .597.123 1.125.368 1.584.256.448.603.795 1.04 1.04.448.245.95.368 1.504.368.48 0 .918-.101 1.312-.304a2.61 2.61 0 00.992-.912l1.168.736c-.33.587-.8 1.04-1.408 1.36-.597.31-1.28.464-2.048.464zm13.3-8.576V33h-1.535v-7.136h-4.784V33H51.62v-8.48h7.856zm10.637 4.288c0 .117-.01.272-.032.464H63.2c.096.747.421 1.35.976 1.808.565.448 1.264.672 2.096.672 1.013 0 1.83-.341 2.448-1.024l.848.992c-.384.448-.864.79-1.44 1.024-.565.235-1.2.352-1.904.352-.896 0-1.69-.181-2.384-.544A4.045 4.045 0 0162.225 31c-.373-.661-.56-1.408-.56-2.24 0-.821.181-1.563.544-2.224A3.97 3.97 0 0163.729 25c.65-.373 1.381-.56 2.192-.56.81 0 1.53.187 2.16.56.64.363 1.136.875 1.488 1.536.363.661.544 1.419.544 2.272zm-4.192-3.072c-.736 0-1.355.224-1.856.672-.49.448-.779 1.035-.864 1.76h5.44c-.085-.715-.379-1.296-.88-1.744-.49-.459-1.104-.688-1.84-.688zm11.07-1.296c.822 0 1.558.181 2.209.544.65.363 1.157.87 1.52 1.52.373.65.56 1.403.56 2.256 0 .853-.187 1.61-.56 2.272a3.858 3.858 0 01-1.52 1.52c-.65.363-1.387.544-2.208.544a3.983 3.983 0 01-1.68-.352 3.496 3.496 0 01-1.28-1.024v4.384h-1.536V24.52h1.472v1.344a3.19 3.19 0 011.296-1.056 4.017 4.017 0 011.728-.368zm-.127 7.312a2.87 2.87 0 001.456-.368 2.707 2.707 0 001.024-1.056c.256-.459.384-.981.384-1.568 0-.587-.128-1.104-.384-1.552a2.572 2.572 0 00-1.024-1.056 2.868 2.868 0 00-1.456-.368c-.534 0-1.019.128-1.456.384a2.74 2.74 0 00-1.024 1.04c-.246.448-.368.965-.368 1.552 0 .587.122 1.11.368 1.568.245.448.587.8 1.024 1.056.437.245.922.368 1.456.368zm12.655-5.888h-3.104V33h-1.536v-7.136h-3.104V24.52h7.744v1.344z" fill="#222"/><path d="M116.437 2.627A3.001 3.001 0 01119.414 0h190.187a3 3 0 012.976 3.373l-6.014 48A3.001 3.001 0 01303.586 54H113.399a3 3 0 01-2.976-3.373l6.014-48z" fill="#FFE200"/><path d="M149.368 30.2h-5.952l-1.232 2.8h-1.648l5.072-11.2h1.584L152.28 33h-1.68l-1.232-2.8zm-.56-1.28l-2.416-5.488-2.416 5.488h4.832zm5.149-4.4h1.536v3.6h4.832v-3.6h1.536V33h-1.536v-3.552h-4.832V33h-1.536v-8.48zm19.514 7.136v3.312h-1.44V33h-7.088v1.968h-1.456v-3.312h.448c.544-.032.918-.416 1.12-1.152.203-.736.342-1.776.416-3.12l.128-2.864h6.576v7.136h1.296zm-6.592-4.16c-.042 1.067-.133 1.952-.272 2.656-.128.693-.368 1.195-.72 1.504h4.752v-5.792h-3.68l-.08 1.632zm13.089-3.056c.822 0 1.558.181 2.208.544.651.363 1.158.87 1.52 1.52.374.65.56 1.403.56 2.256 0 .853-.186 1.61-.56 2.272a3.852 3.852 0 01-1.52 1.52c-.65.363-1.386.544-2.208.544a3.983 3.983 0 01-1.68-.352 3.498 3.498 0 01-1.28-1.024v4.384h-1.536V24.52h1.472v1.344c.342-.47.774-.821 1.296-1.056a4.018 4.018 0 011.728-.368zm-.128 7.312a2.87 2.87 0 001.456-.368 2.7 2.7 0 001.024-1.056c.256-.459.384-.981.384-1.568 0-.587-.128-1.104-.384-1.552a2.566 2.566 0 00-1.024-1.056 2.866 2.866 0 00-1.456-.368c-.533 0-1.018.128-1.456.384a2.745 2.745 0 00-1.024 1.04c-.245.448-.368.965-.368 1.552 0 .587.123 1.11.368 1.568.246.448.587.8 1.024 1.056a2.93 2.93 0 001.456.368zm14.312-2.944a4.5 4.5 0 01-.032.464h-6.88c.096.747.421 1.35.976 1.808.565.448 1.264.672 2.096.672 1.013 0 1.829-.341 2.448-1.024l.848.992c-.384.448-.864.79-1.44 1.024-.565.235-1.2.352-1.904.352-.896 0-1.691-.181-2.384-.544A4.047 4.047 0 01186.264 31c-.373-.661-.56-1.408-.56-2.24 0-.821.181-1.563.544-2.224a3.968 3.968 0 011.52-1.536c.651-.373 1.381-.56 2.192-.56.811 0 1.531.187 2.16.56.64.363 1.136.875 1.488 1.536.363.661.544 1.419.544 2.272zm-4.192-3.072c-.736 0-1.355.224-1.856.672-.491.448-.779 1.035-.864 1.76h5.44c-.085-.715-.379-1.296-.88-1.744-.491-.459-1.104-.688-1.84-.688zm6.575-1.216h1.536v6.176l5.2-6.176h1.392V33h-1.536v-6.176L197.943 33h-1.408v-8.48zm3.968-1.104c-.789 0-1.403-.187-1.84-.56-.437-.384-.661-.933-.672-1.648h1.04c.011.395.144.715.4.96.267.235.619.352 1.056.352.437 0 .789-.117 1.056-.352.267-.245.405-.565.416-.96h1.072c-.011.715-.24 1.264-.688 1.648-.448.373-1.061.56-1.84.56zm20.846-1.616V33h-1.568v-9.808h-4.96l-.112 3.28c-.053 1.547-.181 2.8-.384 3.76-.192.96-.501 1.685-.928 2.176-.427.48-1.003.72-1.728.72-.331 0-.667-.043-1.008-.128l.112-1.424c.171.043.341.064.512.064a1.32 1.32 0 001.104-.544c.277-.373.485-.928.624-1.664.139-.736.229-1.707.272-2.912l.176-4.72h7.888zm6.257 2.64c1.173 0 2.069.288 2.688.864.629.576.944 1.435.944 2.576V33h-1.456v-1.12c-.256.395-.624.699-1.104.912-.47.203-1.03.304-1.68.304-.95 0-1.712-.23-2.288-.688-.566-.459-.848-1.061-.848-1.808 0-.747.272-1.344.816-1.792.544-.459 1.408-.688 2.592-.688h2.432v-.304c0-.661-.192-1.168-.576-1.52-.384-.352-.95-.528-1.696-.528a4.36 4.36 0 00-1.472.256 3.68 3.68 0 00-1.216.656l-.64-1.152c.437-.352.96-.619 1.568-.8a6.39 6.39 0 011.936-.288zm-.352 7.472c.586 0 1.093-.128 1.52-.384a2.29 2.29 0 00.928-1.12v-1.184h-2.368c-1.302 0-1.952.437-1.952 1.312 0 .427.165.763.496 1.008.33.245.789.368 1.376.368zm14.606-7.392V33h-1.536v-7.136h-4.784V33h-1.536v-8.48h7.856zm10.54 0l-4.112 9.328c-.363.864-.79 1.472-1.28 1.824-.48.352-1.062.528-1.744.528-.416 0-.822-.07-1.216-.208a2.41 2.41 0 01-.96-.576l.656-1.152c.437.416.944.624 1.52.624.373 0 .682-.101.928-.304.256-.192.485-.528.688-1.008l.272-.592-3.744-8.464h1.6l2.96 6.784 2.928-6.784h1.504zm6.384 8.48l-2.448-3.248-2.48 3.248h-1.712l3.344-4.336-3.184-4.144h1.712l2.336 3.056 2.32-3.056h1.68l-3.2 4.144L260.528 33h-1.744zm3.36-8.48h1.536v6.176l5.2-6.176h1.392V33h-1.536v-6.176L263.552 33h-1.408v-8.48zm11.11 0h1.536v3.6h4.832v-3.6h1.536V33h-1.536v-3.552h-4.832V33h-1.536v-8.48z" fill="#222"/></svg>