<svg width="101" height="115" fill="none" xmlns="http://www.w3.org/2000/svg"><path d="M97.939 20.594L51.894.379a4.492 4.492 0 00-3.627.006L2.672 20.6A4.492 4.492 0 000 24.707v35.489c0 13.41 5.3 27.121 14.541 37.614 4.649 5.277 10.008 9.454 15.928 12.413 6.342 3.17 13.018 4.777 19.844 4.777 9.557 0 18.86-3.093 26.9-8.946a4.492 4.492 0 10-5.286-7.264c-6.495 4.727-13.97 7.226-21.614 7.226-21.63 0-41.329-21.84-41.329-45.82V27.629L50.097 9.402l41.544 18.239v32.555c0 8.272-2.377 16.643-6.873 24.208a4.492 4.492 0 007.724 4.59c5.32-8.953 8.133-18.912 8.133-28.798V24.707a4.492 4.492 0 00-2.686-4.113z" fill="#FFE200"/><path d="M71.737 35.377L43.884 70.18 28.27 55.16a4.492 4.492 0 10-6.228 6.475l15.832 15.229.019.018a8.66 8.66 0 006.371 2.397 8.667 8.667 0 006.158-2.901c.055-.062.108-.125.16-.19l28.17-35.198a4.492 4.492 0 00-7.015-5.614z" fill="#FFE200"/></svg>